<?xml version="1.0" standalone="no"?>
<!DOCTYPE svg PUBLIC "-//W3C//DTD SVG 20010904//EN"
 "http://www.w3.org/TR/2001/REC-SVG-20010904/DTD/svg10.dtd">
<svg version="1.0" xmlns="http://www.w3.org/2000/svg"
 width="1094.000000pt" height="1094.000000pt" viewBox="0 0 1094.000000 1094.000000"
 preserveAspectRatio="xMidYMid meet">
<metadata>
Created by potrace 1.16, written by Peter Selinger 2001-2019
</metadata>
<g transform="translate(0.000000,1094.000000) scale(0.100000,-0.100000)"
fill="#000000" stroke="none">
<path d="M4950 8734 c-372 -43 -666 -156 -950 -364 -117 -86 -302 -275 -387
-395 -174 -246 -273 -484 -329 -791 -25 -135 -25 -448 -1 -586 23 -131 23
-128 -18 -128 -48 0 -125 31 -187 76 -52 37 -52 37 -34 8 94 -146 192 -252
318 -340 280 -197 684 -267 1095 -188 651 124 1384 563 2251 1348 125 113 143
132 137 153 -14 56 -89 214 -147 311 -284 470 -748 786 -1290 877 -89 15 -385
28 -458 19z"/>
<path d="M7840 8300 c-25 -5 -90 -15 -145 -24 -55 -8 -248 -38 -430 -66 -181
-28 -373 -58 -425 -66 -52 -8 -117 -18 -143 -21 -26 -3 -44 -9 -40 -14 4 -4
128 -62 275 -128 l267 -121 168 106 c268 170 496 316 518 330 21 15 20 15 -45
4z"/>
<path d="M7812 8163 c-21 -27 -119 -151 -217 -278 -98 -126 -181 -235 -186
-240 -4 -6 19 -89 53 -185 33 -96 77 -224 97 -285 27 -78 40 -104 44 -90 12
40 206 811 212 845 8 42 10 50 18 70 14 39 15 58 1 53 -9 -3 -14 2 -14 17 0
18 3 20 14 11 11 -9 14 -6 14 14 0 14 -5 28 -11 32 -7 4 -8 0 -3 -13 4 -10 4
-15 -1 -11 -4 5 -8 23 -9 40 -1 18 1 26 3 20 3 -7 9 -13 15 -13 6 0 6 6 -2 15
-7 9 -8 15 -2 15 5 0 12 7 16 15 9 25 0 17 -42 -32z"/>
<path d="M6905 7194 c-33 -51 -280 -359 -407 -506 -196 -228 -536 -563 -748
-739 -150 -124 -372 -282 -479 -340 -74 -41 -81 -46 -74 -53 4 -4 1 -4 -8 -1
-8 3 -23 -1 -34 -10 -17 -13 -18 -16 -5 -25 8 -5 10 -10 4 -10 -5 0 -15 5 -21
11 -11 11 -48 -7 -82 -39 -11 -11 -9 -12 13 -6 16 4 26 2 26 -5 0 -15 -53 -14
-69 2 -10 10 -16 7 -32 -15 -14 -19 -25 -25 -42 -21 -32 8 -18 -2 21 -15 24
-8 31 -8 26 0 -5 7 2 9 19 6 15 -3 24 -1 21 3 -3 5 4 9 15 9 10 0 28 3 38 6
13 5 12 2 -5 -11 -15 -11 -22 -26 -21 -43 6 -81 -2 -293 -11 -287 -5 3 -10 23
-10 44 0 37 -1 38 -37 37 -31 -1 -39 -5 -41 -23 -3 -20 1 -23 27 -23 17 0 31
-4 31 -10 0 -5 -13 -10 -30 -10 -60 0 -28 -18 48 -26 49 -5 65 -10 45 -12 -18
-2 -33 -7 -33 -12 0 -11 -32 -1 -41 12 -8 13 -61 -2 -56 -16 3 -8 63 -11 203
-10 203 1 300 13 464 60 684 197 1191 765 1314 1474 31 175 29 489 -2 604 l-8
29 -19 -29z"/>
<path d="M4725 4781 c-35 -14 -40 -20 -37 -44 2 -19 -10 -49 -40 -97 -24 -38
-45 -69 -48 -69 -3 -1 -24 27 -47 62 -30 45 -38 65 -31 75 8 9 -1 12 -43 12
-44 0 -50 -2 -37 -12 9 -7 39 -47 67 -88 46 -67 51 -80 51 -129 0 -34 -6 -61
-15 -71 -13 -15 -11 -16 33 -15 58 3 56 1 39 24 -9 14 -11 36 -7 74 4 43 18
73 69 153 35 54 73 109 84 122 24 26 17 26 -38 3z"/>
<path d="M8830 4733 c-27 -10 -40 -36 -40 -80 0 -33 -4 -43 -16 -43 -9 0 -31
-15 -50 -34 -82 -82 -3 -194 116 -163 39 10 47 10 106 1 30 -4 43 -2 54 11 12
15 11 16 -12 10 -32 -8 -68 10 -68 34 0 10 10 30 21 45 21 26 21 28 3 41 -26
20 -34 18 -35 -5 -4 -60 -13 -59 -44 5 -15 30 -26 57 -24 58 2 1 13 7 24 13
11 6 27 23 35 38 14 26 14 28 -13 52 -29 25 -32 26 -57 17z m6 -209 c40 -81
40 -86 -14 -100 -28 -8 -70 18 -82 51 -12 32 5 91 33 110 12 8 22 15 24 15 1
0 19 -34 39 -76z"/>
<path d="M1646 4705 c7 -16 -26 -115 -37 -115 -4 0 -11 5 -15 11 -5 8 -10 6
-16 -5 -7 -13 -5 -21 6 -29 15 -11 15 -16 1 -58 -9 -26 -27 -57 -41 -69 -13
-13 -24 -26 -24 -29 0 -3 20 -7 45 -8 49 -1 50 -1 34 29 -8 15 -8 32 1 64 7
24 15 44 17 44 3 0 18 -15 34 -32 l28 -33 16 23 c23 32 31 28 50 -23 13 -32
15 -48 7 -57 -8 -10 1 -13 40 -15 46 -1 48 0 35 15 -21 23 -60 129 -52 142 3
5 12 10 20 10 8 0 11 7 8 20 -4 16 -9 18 -25 9 -11 -6 -21 -9 -22 -7 -1 2 -12
26 -23 54 -15 38 -18 55 -10 63 8 8 -2 11 -36 11 -37 0 -45 -3 -41 -15z"/>
<path d="M1918 4708 c8 -8 12 -53 12 -137 0 -110 -2 -127 -19 -145 -20 -21
-20 -21 19 -22 33 0 37 2 28 14 -16 19 -25 247 -9 238 6 -4 11 -18 11 -31 0
-13 4 -25 9 -27 4 -1 23 -47 41 -101 18 -54 36 -95 40 -90 4 4 20 43 35 86 15
42 35 98 45 125 l18 47 1 -117 c1 -69 -3 -119 -9 -123 -21 -13 -8 -21 35 -21
28 1 41 4 35 10 -15 15 -13 279 2 294 9 9 0 12 -41 12 -44 0 -51 -2 -42 -14 9
-10 3 -37 -26 -115 -21 -55 -40 -101 -43 -101 -3 0 -21 45 -40 99 -29 84 -32
102 -21 115 12 14 8 16 -40 16 -41 0 -50 -3 -41 -12z"/>
<path d="M2321 4708 c-25 -7 -31 -12 -22 -21 6 -6 11 -32 11 -58 0 -41 -3 -48
-22 -52 l-23 -4 23 -2 c21 -1 22 -5 22 -70 0 -39 -4 -73 -10 -76 -26 -16 -2
-22 88 -21 75 1 105 6 125 19 50 32 48 106 -3 135 -36 20 -37 24 -8 37 25 11
33 34 24 71 -12 47 -116 68 -205 42z m149 -158 c15 -8 20 -21 20 -54 0 -55
-17 -70 -84 -71 l-51 0 -3 59 c-4 84 -1 90 54 82 24 -3 54 -10 64 -16z"/>
<path d="M2746 4702 c3 -9 -3 -35 -12 -57 -10 -22 -17 -44 -16 -48 2 -5 -6 -6
-16 -3 -11 4 -24 0 -32 -9 -10 -12 -10 -15 3 -15 9 0 19 -4 22 -10 9 -14 -31
-100 -61 -131 l-25 -26 51 0 c56 0 55 0 38 26 -9 14 -8 29 2 65 7 25 15 46 18
46 8 0 52 -54 52 -64 0 -5 9 3 21 18 11 14 24 26 29 26 16 0 41 -80 31 -99 -9
-15 -5 -17 35 -17 24 0 43 2 41 5 -16 28 -47 102 -53 124 -5 23 -3 29 15 34
17 4 19 9 10 25 -8 15 -13 17 -25 7 -18 -15 -18 -15 -42 47 -16 38 -18 54 -9
63 8 8 -1 11 -35 11 -39 0 -45 -3 -42 -18z"/>
<path d="M3028 4708 c18 -18 16 -235 -3 -272 -8 -15 -15 -30 -15 -32 0 -2 18
-3 40 -2 39 1 40 2 23 21 -14 15 -19 42 -21 136 -3 80 -1 113 7 106 5 -5 38
-64 72 -130 90 -175 104 -177 105 -19 1 158 2 171 20 188 14 15 12 16 -20 16
-34 0 -35 -1 -25 -26 11 -31 11 -230 -1 -217 -4 4 -33 57 -65 117 -46 86 -55
110 -44 117 9 6 -3 9 -35 9 -39 0 -47 -3 -38 -12z"/>
<path d="M3385 4702 c-51 -32 -69 -69 -70 -139 0 -47 5 -68 21 -89 41 -55 63
-65 162 -68 87 -3 122 4 87 18 -21 8 -21 114 1 144 l15 22 -85 0 c-72 0 -84 2
-80 15 4 8 1 15 -5 15 -18 0 -25 -31 -10 -41 8 -5 35 -9 60 -9 l46 0 2 -76 2
-77 -51 5 c-60 6 -96 34 -110 87 -12 46 -3 117 18 153 31 53 113 58 144 8 7
-11 16 -20 19 -20 7 0 31 51 26 56 -2 3 -40 7 -83 10 -67 5 -84 2 -109 -14z"/>
<path d="M3928 4708 c8 -8 12 -53 12 -135 0 -109 -2 -125 -20 -143 -36 -36
-80 -2 -80 63 l0 38 -30 -21 c-29 -21 -29 -22 -15 -50 21 -41 53 -60 103 -60
35 0 49 6 72 29 25 25 28 33 21 58 -15 50 -11 185 5 211 14 22 14 22 -33 22
-37 0 -44 -3 -35 -12z"/>
<path d="M4194 4692 c-2 -45 -32 -101 -53 -95 -11 3 -21 -2 -24 -11 -4 -10 -1
-16 8 -16 7 0 16 -4 19 -9 9 -14 -32 -102 -60 -132 l-24 -25 50 -1 c55 -2 55
-1 39 26 -12 19 -6 74 11 101 9 15 15 10 52 -44 4 -7 17 -1 32 13 30 28 29 29
50 -23 11 -27 13 -43 6 -50 -18 -18 -11 -23 30 -22 22 1 40 5 40 9 -1 3 -9 26
-20 49 -33 76 -35 98 -11 105 17 4 19 9 10 25 -8 15 -13 17 -25 7 -18 -15 -18
-15 -42 47 -16 38 -18 54 -9 63 8 8 0 11 -33 11 -42 0 -45 -2 -46 -28z"/>
<path d="M4917 4702 c7 -27 -35 -112 -52 -106 -21 8 -29 -16 -10 -30 16 -12
16 -16 -4 -62 -12 -27 -33 -61 -47 -75 l-26 -27 51 1 c49 2 62 9 41 22 -5 3
-10 14 -10 23 0 26 20 92 28 92 4 0 18 -16 32 -34 l24 -33 19 23 c10 13 22 24
27 24 15 0 42 -82 31 -93 -20 -20 -11 -26 40 -25 46 0 49 1 35 16 -21 24 -58
123 -52 139 3 7 12 13 21 13 13 0 14 4 5 21 -9 16 -14 18 -26 8 -18 -15 -18
-15 -42 47 -16 38 -18 54 -9 63 8 8 -1 11 -35 11 -40 0 -45 -2 -41 -18z"/>
<path d="M5328 4708 c7 -7 12 -35 12 -63 0 -44 -3 -54 -22 -63 l-23 -11 23 0
c21 -1 22 -5 22 -68 0 -46 -5 -72 -16 -84 -14 -16 -7 -17 115 -17 72 1 131 2
131 5 0 3 -25 46 -37 62 -1 2 -11 -6 -21 -19 -13 -16 -32 -24 -69 -27 l-51 -5
-4 76 -3 76 34 0 c19 0 43 -7 53 -17 17 -15 18 -14 18 27 0 41 -1 42 -18 27
-10 -10 -32 -17 -49 -17 -30 0 -31 1 -35 51 -1 28 -1 55 2 59 3 4 27 7 53 6
37 -1 53 -7 65 -24 l17 -22 17 30 17 30 -121 0 c-95 0 -119 -3 -110 -12z"/>
<path d="M5650 4705 c19 -23 9 -258 -12 -282 -16 -17 -14 -18 23 -20 44 -2 45
-1 24 31 -12 18 -15 48 -13 132 l3 109 54 -105 c72 -141 90 -170 107 -170 11
0 14 25 14 133 0 95 4 140 14 160 l15 27 -37 0 c-27 0 -33 -3 -22 -10 12 -7
15 -34 16 -120 1 -60 -2 -110 -7 -110 -5 0 -34 50 -65 111 -43 87 -53 114 -42
120 8 6 -5 9 -36 9 -42 0 -47 -2 -36 -15z"/>
<path d="M6000 4698 c-68 -46 -88 -134 -50 -213 30 -61 66 -78 177 -80 87 -2
92 -1 78 15 -21 24 -20 127 2 152 15 17 13 18 -70 18 -73 0 -85 2 -81 15 4 9
0 15 -10 15 -21 0 -21 -36 0 -44 9 -3 35 -6 58 -6 l43 0 2 -75 2 -75 -34 0
c-61 0 -94 18 -116 64 -25 51 -27 102 -5 156 30 75 116 91 154 28 l18 -30 17
32 c9 17 15 34 13 36 -2 2 -40 6 -83 10 -73 5 -83 4 -115 -18z"/>
<path d="M6298 4708 c15 -15 17 -279 2 -294 -6 -6 6 -10 35 -10 29 0 41 4 35
10 -15 15 -13 279 2 294 9 9 1 12 -37 12 -38 0 -46 -3 -37 -12z"/>
<path d="M6466 4709 c3 -6 7 -69 6 -141 0 -104 -3 -132 -16 -147 -15 -16 -13
-17 28 -17 l44 0 -19 26 c-17 22 -19 40 -17 135 l3 110 64 -125 c58 -116 82
-150 103 -150 4 0 8 62 8 138 0 108 3 142 16 160 15 22 14 22 -22 22 -29 0
-34 -3 -25 -13 13 -17 23 -239 9 -231 -5 3 -34 55 -64 116 -43 86 -53 113 -42
119 8 6 -5 9 -35 9 -33 0 -46 -4 -41 -11z"/>
<path d="M6773 4709 c13 -8 17 -23 17 -64 0 -30 -4 -55 -8 -55 -5 0 -17 -6
-27 -14 -18 -13 -18 -14 8 -9 l27 5 0 -70 c0 -39 -4 -74 -10 -77 -26 -16 0
-21 115 -21 69 -1 125 1 125 3 0 3 -26 46 -37 62 -1 2 -11 -7 -21 -20 -16 -19
-29 -23 -73 -24 l-54 0 -3 73 -3 72 37 0 c21 0 45 -7 54 -15 14 -13 16 -11 16
20 0 34 -9 45 -21 25 -3 -5 -24 -10 -46 -10 l-40 0 3 58 3 57 47 -1 c34 0 54
-6 70 -22 l23 -21 17 30 17 29 -127 0 c-91 -1 -122 -3 -109 -11z"/>
<path d="M7098 4708 c7 -7 12 -35 12 -63 0 -44 -3 -54 -22 -63 l-23 -11 23 0
c21 -1 22 -5 22 -68 0 -44 -5 -72 -15 -83 -13 -15 -4 -16 116 -16 71 0 128 2
126 5 -2 3 -10 20 -17 37 l-13 31 -22 -25 c-16 -18 -34 -26 -73 -30 l-52 -5 0
77 0 76 32 0 c17 0 40 -7 50 -17 17 -15 18 -14 18 27 0 41 -1 42 -18 27 -10
-10 -33 -17 -50 -17 l-32 0 0 60 c0 60 0 60 29 60 37 0 81 -16 95 -35 9 -12
14 -10 28 15 l17 30 -121 0 c-95 0 -119 -3 -110 -12z"/>
<path d="M7435 4706 c-16 -8 -24 -15 -17 -15 8 -1 12 -21 12 -65 0 -57 -2 -64
-22 -71 l-23 -8 23 -4 c19 -4 22 -10 22 -57 0 -28 -5 -57 -12 -64 -14 -14 -15
-13 35 -16 36 -2 48 6 27 19 -5 3 -10 32 -10 64 0 58 0 59 32 65 17 3 35 3 39
-1 9 -11 37 -99 45 -145 3 -21 8 -38 11 -38 2 0 18 7 34 16 29 15 30 16 15 37
-31 43 -76 122 -76 135 0 6 4 12 9 12 20 0 71 53 71 74 0 12 -11 33 -25 46
-21 20 -38 25 -93 27 -43 2 -78 -2 -97 -11z m146 -22 c43 -39 4 -101 -70 -111
l-41 -6 0 65 c0 36 3 68 8 72 12 13 82 -1 103 -20z"/>
<path d="M7900 4705 c8 -10 11 -52 8 -139 -2 -102 -6 -127 -21 -144 -18 -20
-18 -20 22 -19 43 1 48 6 30 24 -7 7 -13 61 -16 130 -5 141 -4 140 85 -34 54
-107 72 -130 93 -117 5 3 9 68 9 144 0 113 3 142 16 154 14 15 12 16 -21 16
-32 0 -35 -2 -25 -19 12 -24 14 -239 1 -225 -4 5 -33 57 -63 116 -39 75 -52
110 -45 117 8 8 -3 11 -37 11 -41 0 -47 -2 -36 -15z"/>
<path d="M8249 4696 c-69 -47 -87 -162 -36 -230 15 -20 38 -41 50 -47 26 -15
207 -21 207 -8 0 5 -4 9 -10 9 -6 0 -10 30 -10 69 0 39 5 73 10 76 27 17 2 25
-75 25 -71 0 -83 2 -79 15 7 17 -11 21 -21 5 -13 -21 17 -40 65 -40 l47 0 2
-75 2 -75 -35 0 c-87 0 -126 46 -126 152 0 60 3 71 28 98 15 16 41 33 59 36
27 5 37 1 64 -25 17 -18 32 -31 33 -29 1 2 9 15 18 29 l17 26 -52 7 c-91 10
-121 7 -158 -18z"/>
<path d="M5510 4149 c-43 -9 -70 -41 -70 -83 0 -44 33 -73 106 -91 88 -23 118
-71 73 -116 -32 -32 -105 -22 -140 20 l-25 31 -16 -34 -16 -33 26 -1 c15 0 48
-5 73 -11 75 -17 144 12 149 64 8 71 -13 97 -97 121 -32 9 -66 23 -75 32 -25
21 -22 58 4 76 34 24 67 19 98 -14 l27 -29 12 26 c6 14 10 27 9 28 -10 10
-109 20 -138 14z"/>
<path d="M3130 4146 c0 -2 6 -15 13 -29 13 -25 14 -25 30 -6 10 11 29 19 47
19 l30 0 0 -138 c0 -94 -4 -142 -12 -150 -9 -9 -1 -12 37 -12 38 0 46 3 37 12
-8 8 -12 56 -12 150 l0 138 29 0 c19 0 35 -8 44 -20 14 -20 14 -20 31 4 9 14
16 28 16 31 0 3 -65 5 -145 5 -80 0 -145 -2 -145 -4z"/>
<path d="M3511 4139 c-32 -8 -40 -14 -32 -22 6 -6 11 -37 11 -68 0 -48 -3 -57
-20 -62 -11 -3 -20 -10 -20 -17 0 -7 8 -9 20 -5 18 6 20 2 20 -51 0 -42 -4
-60 -17 -70 -16 -12 -12 -13 30 -14 47 0 56 7 36 27 -5 5 -9 34 -7 64 3 51 5
54 33 59 27 5 32 1 47 -31 9 -20 22 -62 29 -93 7 -31 16 -56 21 -56 8 0 47 18
57 26 2 2 -10 20 -26 41 -35 44 -63 96 -63 116 0 8 13 20 29 26 56 24 65 85
17 117 -31 19 -110 26 -165 13z"/>
<path d="M3911 4132 c16 -25 -27 -128 -46 -112 -10 8 -15 8 -21 -1 -4 -7 0
-17 9 -24 14 -10 15 -17 5 -46 -15 -45 -37 -80 -62 -101 -20 -17 -20 -18 31
-18 52 0 52 0 41 25 -8 18 -8 36 2 71 l14 47 31 -37 32 -38 16 26 c10 14 21
26 26 26 5 0 16 -21 25 -47 12 -34 13 -50 5 -60 -9 -11 -2 -13 42 -13 46 1 52
3 37 13 -16 13 -58 109 -58 135 0 6 9 12 19 12 14 0 18 5 14 20 -4 15 -12 20
-30 18 -21 -3 -28 4 -44 46 -15 37 -17 52 -8 62 9 12 3 14 -40 14 -47 0 -50
-2 -40 -18z"/>
<path d="M4194 4128 c10 -16 15 -58 16 -142 1 -101 -2 -121 -17 -138 -18 -20
-18 -21 68 -16 132 7 169 43 169 166 0 109 -50 150 -183 151 l-67 1 14 -22z
m137 -8 c31 -17 49 -64 49 -130 0 -95 -32 -140 -99 -140 l-31 0 0 140 0 140
31 0 c17 0 39 -5 50 -10z"/>
<path d="M4499 4136 c17 -20 17 -272 1 -292 -11 -12 -5 -14 41 -14 42 1 50 3
37 11 -16 9 -18 27 -18 141 0 108 3 135 17 150 15 17 14 18 -37 18 -44 0 -51
-2 -41 -14z"/>
<path d="M4663 4132 c14 -15 17 -40 17 -118 0 -103 -11 -162 -32 -176 -8 -4 7
-8 35 -8 l47 0 -20 20 c-18 18 -20 33 -20 133 0 110 1 112 19 88 10 -13 42
-72 72 -132 37 -75 59 -109 70 -109 16 0 18 16 21 139 3 120 6 142 22 160 l19
21 -43 0 c-38 0 -41 -2 -29 -16 14 -18 25 -234 11 -234 -4 0 -33 50 -64 112
-44 85 -55 115 -47 125 9 10 1 13 -41 13 -51 0 -52 -1 -37 -18z"/>
<path d="M5032 4131 c-56 -26 -87 -89 -80 -163 10 -101 66 -138 208 -138 88 0
93 1 72 16 -18 12 -22 25 -22 70 0 34 6 64 16 79 l16 25 -86 0 c-75 0 -85 2
-79 16 4 12 2 15 -8 12 -8 -3 -14 -13 -14 -24 0 -16 9 -19 58 -22 l57 -3 0
-74 0 -75 -51 0 c-42 0 -55 5 -79 28 -32 32 -47 98 -35 158 18 96 131 128 173
50 9 -18 11 -17 26 12 20 38 20 38 -1 38 -10 1 -43 4 -73 8 -44 5 -64 2 -98
-13z"/>
<path d="M5738 4139 c17 -18 17 -280 0 -297 -9 -9 3 -12 58 -12 95 1 145 24
167 79 33 82 14 171 -45 214 -33 25 -203 40 -180 16z m164 -39 c21 -26 32 -97
24 -154 -9 -59 -44 -96 -91 -96 l-35 0 0 141 0 142 42 -6 c26 -4 49 -14 60
-27z"/>
<path d="M6048 4138 c19 -19 16 -257 -4 -286 -15 -22 -15 -22 32 -22 46 0 46
0 25 18 -20 16 -22 25 -19 132 l3 115 68 -133 c52 -101 73 -132 88 -132 18 0
19 8 19 138 0 108 3 142 16 160 15 22 15 22 -26 22 -38 0 -40 -1 -26 -16 13
-12 16 -39 16 -125 0 -61 -3 -108 -7 -105 -5 2 -33 54 -63 116 -46 93 -52 112
-40 120 10 7 -2 10 -39 10 -43 0 -52 -3 -43 -12z"/>
<path d="M6530 4138 c-37 -10 -63 -28 -42 -28 8 0 12 -18 12 -49 0 -42 -3 -50
-22 -56 l-23 -8 23 -4 c20 -4 22 -10 22 -72 0 -39 -5 -72 -12 -79 -16 -16 155
-17 201 -1 69 24 68 119 -2 156 -16 8 -16 10 8 23 18 10 25 21 25 44 0 41 -9
52 -53 71 -41 17 -85 18 -137 3z m134 -164 c27 -27 31 -63 9 -92 -16 -22 -29
-28 -72 -30 l-51 -3 0 70 0 71 49 0 c32 0 55 -6 65 -16z"/>
<path d="M6828 4138 c7 -7 12 -38 12 -69 0 -47 -4 -59 -22 -73 l-23 -17 23 6
c21 6 22 4 22 -62 0 -40 -5 -74 -12 -81 -9 -9 -1 -12 37 -12 38 0 46 3 37 12
-7 7 -12 40 -12 78 l0 66 55 0 55 -1 0 -65 c0 -38 -5 -71 -12 -78 -9 -9 -1
-12 37 -12 38 0 46 3 37 12 -8 8 -12 55 -12 146 0 117 2 137 18 148 15 12 10
13 -36 14 -52 0 -52 0 -39 -22 7 -13 12 -30 11 -38 -1 -8 -2 -30 -3 -47 l-1
-33 -55 0 -55 0 0 60 c0 46 4 61 18 69 13 8 4 10 -37 11 -43 0 -52 -3 -43 -12z"/>
<path d="M7148 4139 c8 -9 12 -54 12 -151 0 -120 -2 -138 -17 -148 -14 -8 3
-10 69 -8 96 3 131 20 157 74 19 38 19 131 1 168 -27 52 -61 69 -152 74 -68 3
-81 2 -70 -9z m152 -37 c35 -35 47 -100 30 -163 -17 -62 -44 -89 -92 -89 l-38
0 0 140 0 140 36 0 c26 0 43 -8 64 -28z"/>
<path d="M5099 3684 c-34 -48 -62 -92 -62 -99 0 -15 121 -185 131 -184 8 0
111 141 126 170 6 13 -7 39 -55 108 -35 49 -67 90 -71 91 -4 0 -35 -39 -69
-86z"/>
<path d="M4605 3653 c-33 -1 -373 -10 -755 -18 -683 -15 -1301 -30 -1795 -43
l-250 -7 255 -8 c282 -8 817 -22 1510 -37 250 -6 622 -15 825 -20 204 -5 423
-10 488 -10 l119 0 -23 37 -23 36 22 39 23 38 -168 -2 c-92 -1 -195 -3 -228
-5z"/>
<path d="M5340 3654 c0 -5 9 -22 20 -39 19 -29 19 -29 -2 -63 -11 -18 -18 -36
-14 -39 3 -4 239 -1 523 6 512 12 840 20 1783 41 923 22 938 23 370 38 -905
23 -1261 32 -1710 42 -245 5 -563 13 -707 17 -156 3 -263 2 -263 -3z"/>
</g>
</svg>
