<svg xmlns="http://www.w3.org/2000/svg" width="17.528" height="17.728" viewBox="0 0 17.528 17.728"><defs><style>.a{fill:#fff;stroke:rgba(0,0,0,0);stroke-miterlimit:10;}</style></defs><path class="a" d="M0,12.031V4.7A4.674,4.674,0,0,1,1.23,1.545c.094-.1.193-.2.294-.293A4.728,4.728,0,0,1,4.731,0H11.8a4.724,4.724,0,0,1,4.731,4.7v7.327a4.667,4.667,0,0,1-1.289,3.22.206.206,0,0,1-.019.021l-.16.16a.061.061,0,0,0-.013.013l-1.112,1.111,1.11-1.11A4.729,4.729,0,0,1,11.8,16.727H4.72A4.72,4.72,0,0,1,0,12.031ZM1.092,5.4v5.971c0,2.917,1.268,4.162,4.239,4.162h5.828c2.853,0,4.238-1.363,4.238-4.162V5.4c0-2.8-1.385-4.163-4.238-4.163H5.331C2.479,1.233,1.092,2.595,1.092,5.4Zm2.78,2.97V8.276a4.181,4.181,0,1,1,8.362,0v.091a4.182,4.182,0,0,1-8.362,0Zm1.16-.091v.091a3.024,3.024,0,0,0,6.044,0V8.276a3.022,3.022,0,1,0-6.044,0Zm.4,1.354h.014v.014Zm-2.6-5.775A.866.866,0,1,1,3.7,4.72.868.868,0,0,1,2.833,3.854Z" transform="translate(0.5 0.5)"/></svg>