<?xml version="1.0" standalone="no"?>
<!DOCTYPE svg PUBLIC "-//W3C//DTD SVG 20010904//EN"
 "http://www.w3.org/TR/2001/REC-SVG-20010904/DTD/svg10.dtd">
<svg version="1.0" xmlns="http://www.w3.org/2000/svg"
 width="1229.000000pt" height="691.000000pt" viewBox="0 0 1229.000000 691.000000"
 preserveAspectRatio="xMidYMid meet">
<metadata>
Created by potrace 1.16, written by Peter Selinger 2001-2019
</metadata>
<g transform="translate(0.000000,691.000000) scale(0.100000,-0.100000)"
fill="#000000" stroke="none">
<path d="M5389 6745 c-378 -59 -732 -213 -1034 -450 -92 -72 -270 -249 -346
-345 -223 -278 -375 -617 -440 -985 -20 -112 -23 -163 -23 -370 0 -226 10
-341 41 -464 6 -24 5 -24 -48 -17 -63 8 -155 50 -223 102 -26 20 -50 34 -53
31 -8 -9 62 -120 127 -201 191 -239 483 -410 822 -478 152 -31 505 -33 668 -5
693 122 1435 521 2295 1237 277 230 575 502 575 525 0 7 -20 62 -45 121 -226
539 -676 970 -1234 1183 -110 42 -320 96 -452 115 -134 20 -504 20 -630 1z"/>
<path d="M8765 6234 c-115 -19 -439 -70 -720 -114 -584 -92 -561 -88 -549
-100 5 -5 61 -32 124 -60 63 -29 208 -94 322 -146 l208 -94 287 181 c586 369
549 348 538 300 -3 -15 -23 -92 -45 -171 l-38 -145 -1 116 c-1 114 -1 117 30
158 17 24 29 45 27 47 -5 4 -549 -700 -562 -726 -6 -13 24 -113 104 -347 62
-180 116 -335 120 -343 11 -20 6 -35 84 270 36 140 117 458 180 705 64 248
113 458 110 469 -4 12 -2 16 5 12 6 -4 11 0 11 8 0 19 20 21 -235 -20z"/>
<path d="M7688 4813 c-580 -747 -1206 -1344 -1753 -1673 -301 -181 -559 -284
-839 -337 -130 -25 -418 -22 -539 4 -52 11 -86 15 -84 9 4 -13 167 -115 252
-158 133 -68 451 -180 504 -177 9 0 -9 7 -39 15 -181 48 -380 126 -528 208
-89 50 -164 97 -160 101 2 2 37 -4 78 -13 107 -22 394 -22 520 1 125 23 262
62 385 109 55 22 108 42 118 45 16 5 17 -11 17 -250 l0 -256 -52 -4 c-29 -2
26 -4 124 -5 209 -2 366 15 553 63 561 141 1034 496 1335 1001 203 341 315
786 296 1179 -6 138 -24 291 -35 313 -5 8 -58 -53 -153 -175z"/>
<path d="M5310 2166 c-14 -8 -44 -20 -67 -27 -43 -12 -52 -22 -33 -34 20 -12
9 -49 -32 -116 -24 -38 -45 -69 -48 -69 -3 0 -20 25 -39 55 -24 42 -30 59 -22
69 18 21 2 26 -88 26 l-85 0 31 -32 c17 -18 53 -68 82 -110 48 -72 51 -81 51
-139 0 -51 -4 -67 -22 -86 l-21 -23 84 -2 84 -2 -90 -6 -90 -6 104 -2 103 -2
-26 34 c-21 28 -26 46 -26 91 0 52 5 63 71 168 39 62 87 131 106 155 38 46 38
68 1 36 -21 -17 -21 -16 1 9 27 30 14 36 -29 13z"/>
<path d="M10035 2065 c-20 -19 -25 -34 -25 -73 0 -47 -1 -50 -40 -67 -54 -24
-72 -47 -77 -99 -5 -36 0 -54 21 -90 35 -61 73 -79 147 -74 33 2 66 11 76 20
19 17 43 13 56 -8 9 -16 60 -18 88 -4 20 11 27 40 9 40 -5 0 -10 7 -10 15 0 9
-9 15 -24 15 -13 0 -29 7 -36 15 -11 13 -9 21 8 45 26 35 28 44 6 36 -14 -5
-15 -4 -4 9 10 12 10 15 -1 15 -8 0 -25 9 -39 20 -32 25 -40 25 -40 -2 -1 -23
-1 -23 -15 2 -13 23 -12 27 15 52 16 14 32 38 36 53 6 26 -11 83 -23 72 -3 -4
-17 3 -31 13 -33 27 -68 25 -97 -5z"/>
<path d="M2455 2064 c-22 -8 -46 -21 -54 -28 -11 -12 -10 -15 8 -21 18 -5 21
-14 21 -60 0 -47 -3 -54 -22 -57 -32 -5 -33 -26 -1 -31 l28 -4 -28 -2 c-31 -1
-28 -21 4 -21 17 0 19 -7 19 -60 0 -49 -3 -61 -20 -70 -42 -22 -18 -30 103
-32 l122 -2 -120 -6 -120 -6 144 -2 143 -2 34 34 c29 29 34 41 34 83 0 36 -5
55 -18 66 -10 10 -21 15 -24 12 -3 -3 -10 1 -16 8 -9 11 -6 19 13 37 20 19 25
33 25 71 0 54 -10 65 -83 91 -61 21 -137 22 -192 2z"/>
<path d="M3717 2066 c-50 -18 -76 -42 -98 -91 -22 -48 -25 -142 -5 -188 13
-32 78 -97 96 -97 6 0 9 -5 8 -12 -5 -18 35 -23 163 -20 l120 3 -26 30 c-21
26 -25 40 -25 96 0 47 5 72 16 84 28 31 8 39 -97 39 -92 0 -99 1 -99 20 0 15
-7 20 -25 20 -26 0 -32 -19 -19 -67 6 -21 12 -23 70 -23 l64 0 0 -75 0 -75
-38 0 c-75 0 -112 56 -112 167 0 79 14 112 54 132 24 11 33 11 66 -4 24 -11
41 -26 44 -41 11 -41 40 -29 66 26 13 27 20 53 17 57 -4 4 -33 10 -65 14 -31
4 -75 10 -97 13 -24 4 -55 0 -78 -8z"/>
<path d="M6795 2071 c-77 -19 -124 -79 -132 -171 -7 -75 15 -137 63 -180 19
-16 39 -30 44 -30 6 0 9 -5 8 -11 -5 -19 39 -24 165 -21 l118 3 -25 34 c-22
28 -26 44 -26 96 0 43 5 68 16 80 28 31 8 39 -97 39 -93 0 -99 1 -99 21 0 15
-5 20 -22 17 -27 -4 -35 -36 -18 -67 9 -18 20 -21 70 -21 l60 0 0 -75 0 -75
-37 0 c-46 0 -54 5 -87 54 -21 32 -26 50 -26 103 0 120 49 174 124 138 20 -10
39 -27 42 -39 10 -40 39 -28 64 24 26 56 21 70 -23 69 -18 -1 -56 4 -86 10
-29 6 -56 11 -60 10 -3 -1 -20 -4 -36 -8z"/>
<path d="M8465 2070 c-16 -4 -43 -13 -60 -19 -27 -11 -29 -14 -12 -25 24 -18
25 -146 2 -146 -17 0 -38 -43 -24 -48 5 -2 7 -8 3 -13 -3 -5 4 -9 15 -9 18 0
21 -6 21 -43 0 -30 -6 -49 -19 -61 -18 -17 -20 -16 -51 29 -24 35 -35 44 -41
34 -7 -11 -9 -10 -9 4 0 9 -4 17 -10 17 -5 0 -10 -4 -10 -9 0 -4 -12 -20 -26
-35 -20 -19 -37 -26 -65 -26 l-39 0 0 65 0 65 31 0 c19 0 37 -7 45 -17 12 -16
13 -7 13 57 l0 75 -24 -27 c-13 -16 -33 -28 -45 -28 -18 0 -20 6 -20 55 0 53
1 55 26 55 31 0 94 -28 94 -42 0 -5 4 -7 9 -4 5 4 11 1 13 -6 2 -6 16 10 32
35 15 26 24 52 21 57 -4 6 -74 10 -172 10 l-166 0 21 -23 c17 -18 22 -36 22
-80 0 -41 -4 -57 -13 -57 -22 0 -50 -37 -43 -56 4 -11 13 -14 31 -10 25 6 25
6 25 -56 0 -53 -3 -65 -21 -76 -25 -16 -42 -5 -65 41 -10 18 -21 27 -30 23 -8
-3 -14 0 -14 6 0 7 -15 -5 -34 -25 -28 -31 -40 -37 -75 -37 l-41 0 0 65 0 65
33 0 c21 0 41 -8 52 -20 10 -11 22 -20 27 -20 4 0 8 32 8 70 0 56 -3 72 -16
77 -11 4 -23 -3 -36 -20 -12 -17 -29 -27 -44 -27 -24 0 -25 3 -22 53 l3 52 37
-1 c24 -1 50 -11 73 -29 20 -15 37 -25 39 -24 51 80 54 87 43 98 -7 7 -67 11
-176 11 l-166 -1 28 -20 c24 -18 27 -27 27 -79 0 -54 -2 -58 -25 -64 -31 -8
-50 -47 -29 -59 8 -5 23 -5 34 -2 18 6 20 2 20 -54 0 -52 -3 -62 -25 -79 -14
-11 -25 -23 -25 -26 0 -4 81 -6 180 -4 98 2 176 0 172 -4 -4 -4 -82 -9 -172
-11 l-165 -3 177 -2 c110 -1 179 2 183 8 4 6 73 10 176 10 93 0 169 3 169 7 0
3 -8 16 -17 27 -18 21 -18 21 5 2 47 -40 33 -45 -145 -49 l-168 -3 178 -2
c113 -1 177 2 177 8 0 6 31 9 78 8 l77 -2 -70 -6 -70 -6 89 -2 90 -2 -27 28
c-23 24 -27 37 -27 84 0 51 2 56 24 60 25 5 27 0 77 -184 5 -21 12 -38 15 -38
2 0 28 12 56 26 49 25 55 26 236 24 l185 -1 -32 36 c-30 35 -31 38 -31 133 l1
97 62 -120 c59 -114 64 -120 97 -126 l35 -6 -35 -5 c-35 -5 -34 -5 8 -6 l42
-2 0 170 0 171 26 24 c24 22 25 25 8 25 -16 0 -17 2 -4 10 10 7 -9 10 -64 10
l-79 0 27 -21 c25 -19 26 -25 26 -112 l0 -92 -49 90 c-43 79 -48 92 -35 106 8
8 14 19 14 22 0 4 -41 7 -92 7 l-91 0 21 -23 c20 -21 22 -34 22 -144 0 -66 -3
-135 -6 -152 -8 -41 -47 -69 -69 -51 -22 19 -22 322 0 340 25 21 0 30 -84 30
l-74 0 21 -23 c21 -22 22 -33 22 -174 0 -137 -2 -151 -20 -168 -20 -18 -21
-17 -60 24 -22 23 -50 61 -61 84 -21 40 -21 42 -3 52 42 24 64 58 64 100 0 52
-12 66 -77 93 -52 22 -113 26 -168 12z"/>
<path d="M9435 2071 c-77 -19 -124 -79 -132 -171 -7 -75 15 -137 63 -180 19
-16 39 -30 44 -30 6 0 9 -5 8 -11 -5 -19 39 -24 165 -21 l117 3 -25 33 c-21
27 -25 44 -25 96 0 44 5 69 16 81 28 31 8 39 -97 39 -93 0 -99 1 -99 21 0 15
-5 20 -22 17 -27 -4 -35 -36 -18 -67 9 -18 20 -21 70 -21 l60 0 0 -75 0 -75
-40 0 c-30 0 -45 7 -65 28 -36 37 -45 63 -45 133 0 116 50 169 124 134 20 -10
39 -27 42 -39 10 -40 39 -28 64 24 26 56 21 70 -23 69 -18 -1 -56 4 -86 10
-29 6 -56 11 -60 10 -3 -1 -20 -4 -36 -8z"/>
<path d="M1642 2051 c19 -31 -11 -107 -40 -103 -15 2 -26 -6 -37 -28 -17 -32
-13 -50 11 -50 19 0 18 -11 -9 -73 -13 -29 -38 -65 -55 -79 -18 -15 -32 -29
-32 -32 0 -3 35 -7 78 -8 l77 -2 -75 -6 -75 -6 94 -2 c89 -2 93 -1 78 16 -26
29 -35 64 -25 102 l10 34 32 -39 33 -39 25 29 25 29 13 -39 c11 -33 10 -39 -4
-47 -34 -19 -13 -28 67 -30 l82 -2 -80 -6 c-64 -5 -47 -7 88 -8 92 -1 167 1
167 5 0 4 -10 17 -22 31 -20 20 -23 36 -25 110 l-2 87 36 -107 c31 -89 41
-108 58 -109 20 0 20 0 0 -9 -18 -8 -18 -9 5 -9 23 -1 28 8 65 112 l40 112 3
-80 c3 -71 1 -81 -17 -94 -36 -23 -24 -31 52 -33 l72 -2 -70 -6 -70 -6 88 -2
c82 -2 87 -1 78 16 -5 10 -17 24 -25 32 -24 19 -23 305 1 318 10 6 14 16 10
26 -5 13 -22 16 -88 16 l-81 0 15 -24 c14 -21 13 -29 -16 -110 -17 -47 -34
-86 -37 -86 -3 0 -19 39 -34 87 -26 79 -27 88 -12 98 20 15 21 29 0 21 -8 -3
-12 -2 -9 4 4 6 -24 10 -76 10 -79 0 -81 -1 -66 -18 14 -16 17 -43 17 -170 0
-150 0 -151 -26 -171 -23 -18 -28 -19 -47 -6 -11 8 -29 36 -39 62 -34 89 -34
86 1 78 l31 -7 -19 41 c-22 51 -25 54 -53 56 -32 2 -65 87 -43 105 27 23 15
27 -70 29 -83 2 -85 1 -73 -18z"/>
<path d="M2931 2048 c15 -35 -12 -104 -40 -101 -14 2 -26 -7 -37 -29 -16 -31
-16 -33 4 -46 20 -13 20 -15 5 -59 -10 -27 -34 -65 -59 -90 l-43 -43 82 -2 82
-2 -75 -6 -75 -6 92 -2 92 -2 -25 37 c-19 28 -23 44 -18 67 10 48 20 50 44 12
12 -20 24 -36 28 -36 3 0 18 12 33 26 l27 25 11 -32 c10 -29 9 -35 -11 -56
l-21 -23 89 -2 89 -2 -80 -6 c-62 -5 -39 -7 99 -8 l180 -2 -34 35 c-32 33 -33
36 -37 137 l-4 103 28 -46 c15 -26 46 -83 68 -128 38 -78 40 -81 75 -82 l35
-2 -35 -7 -35 -7 43 -2 42 -1 0 174 0 174 28 21 c22 16 23 20 9 21 -10 0 -15
5 -12 10 4 6 -20 10 -64 10 l-70 0 24 -25 c23 -22 25 -31 24 -117 l0 -93 -50
99 c-44 86 -49 100 -35 108 35 20 12 28 -76 28 -88 0 -90 -1 -75 -18 14 -16
17 -43 17 -170 0 -139 -2 -154 -20 -172 -24 -24 -32 -25 -58 -2 -16 14 -62
116 -62 138 0 4 11 3 25 0 29 -7 30 -1 10 47 -15 35 -35 50 -58 42 -7 -3 -19
13 -29 42 -16 44 -16 49 -1 65 20 23 9 36 -14 17 -11 -9 -14 -10 -9 -1 5 9
-10 12 -63 12 -70 0 -70 0 -60 -22z"/>
<path d="M4308 2047 c20 -22 22 -33 22 -163 0 -105 -4 -145 -14 -159 -14 -19
-15 -19 -35 -1 -16 14 -21 31 -21 68 0 62 -18 63 -23 1 l-3 -48 -2 53 c-1 28
-5 52 -8 52 -3 0 -25 -14 -48 -32 -22 -17 -43 -33 -45 -35 -3 -2 2 -9 10 -16
19 -15 54 -70 51 -79 -1 -4 9 -15 23 -24 19 -12 41 -15 90 -12 57 3 69 8 99
37 36 35 51 67 35 77 -13 8 -11 258 2 271 22 22 -3 33 -78 33 l-76 0 21 -23z"/>
<path d="M4622 2053 c15 -16 15 -22 -1 -63 -14 -36 -21 -44 -38 -42 -16 2 -26
-5 -38 -28 -17 -32 -13 -50 11 -50 8 0 14 -6 14 -12 0 -29 -49 -116 -79 -140
-17 -15 -31 -29 -31 -32 0 -3 35 -7 78 -8 l77 -2 -75 -6 -75 -6 93 -2 93 -2
-20 29 c-21 29 -27 74 -14 106 5 14 12 11 39 -21 l32 -39 23 29 22 28 13 -23
c18 -32 17 -56 -1 -63 -38 -14 -9 -26 68 -28 l82 -2 -80 -6 -80 -6 100 -2 100
-1 -35 33 c-29 26 -80 125 -80 153 0 2 14 2 30 -2 17 -4 30 -4 30 0 0 18 -42
85 -50 80 -6 -4 -10 -1 -10 5 0 6 -8 10 -17 8 -12 -2 -22 10 -34 44 -16 40
-16 48 -4 58 27 23 15 27 -72 29 -83 2 -86 1 -71 -16z"/>
<path d="M5463 2052 c15 -17 15 -22 0 -70 -13 -40 -20 -49 -29 -41 -17 14 -30
5 -50 -32 -15 -29 -14 -31 5 -36 12 -3 21 -13 21 -22 -1 -32 -41 -104 -77
-137 l-37 -34 85 -2 84 -2 -75 -6 -75 -6 88 -2 88 -2 -22 38 c-17 29 -20 46
-15 75 4 20 11 37 16 37 6 0 10 -3 10 -7 0 -5 11 -21 25 -38 l24 -30 25 30 25
30 15 -35 c14 -33 13 -36 -7 -57 l-20 -23 84 -2 84 -2 -75 -6 -75 -6 98 -2 99
-2 -31 26 c-35 29 -42 40 -71 114 l-21 53 32 -7 c27 -5 30 -4 24 12 -4 9 -12
29 -17 45 -9 24 -23 32 -54 28 -19 -2 -47 85 -35 108 6 11 11 22 11 25 0 3
-39 6 -87 6 -82 0 -85 -1 -70 -18z"/>
<path d="M5948 2047 c17 -18 22 -36 22 -80 0 -41 -4 -57 -13 -57 -22 0 -50
-37 -43 -56 4 -11 13 -14 31 -10 25 6 25 6 25 -56 0 -52 -3 -65 -20 -76 -45
-28 -20 -33 155 -30 96 2 175 0 175 -4 0 -4 -75 -9 -167 -11 -130 -2 -110 -3
91 -5 l258 -2 -31 35 c-30 35 -31 38 -31 133 l1 97 62 -120 c59 -114 64 -120
97 -126 l35 -6 -35 -5 c-35 -5 -34 -5 8 -6 l42 -2 0 170 0 171 26 24 c24 22
25 25 8 25 -16 0 -17 2 -4 10 10 7 -9 10 -64 10 l-79 0 27 -21 c25 -19 26 -25
26 -112 l0 -92 -49 90 c-42 78 -47 92 -35 106 8 8 14 19 14 22 0 4 -41 7 -92
7 l-91 0 22 -24 c22 -23 23 -30 19 -169 -2 -103 -7 -149 -17 -160 -20 -25 -28
-21 -57 23 -20 30 -30 37 -35 28 -7 -10 -9 -8 -9 5 0 24 -7 22 -44 -18 -26
-28 -41 -35 -70 -35 l-36 0 0 65 c0 65 0 65 28 65 16 0 37 -9 47 -20 10 -11
22 -20 27 -20 4 0 8 34 8 75 0 66 -2 75 -18 75 -10 0 -25 -11 -32 -25 -8 -16
-22 -25 -37 -25 -21 0 -23 4 -23 55 0 52 1 55 25 55 30 0 86 -27 98 -46 13
-22 20 -17 51 32 24 38 26 48 15 55 -8 5 -86 9 -173 9 l-159 0 21 -23z"/>
<path d="M7088 2047 c21 -22 22 -33 22 -172 0 -139 -1 -150 -22 -172 l-21 -23
79 -2 79 -2 -75 -6 c-57 -5 -33 -7 99 -8 l175 -2 -33 34 c-33 34 -33 36 -37
143 l-5 108 68 -132 c67 -131 68 -133 103 -134 l35 -2 -35 -7 -35 -7 43 -2 42
-1 0 170 0 171 26 24 c24 22 25 25 8 25 -16 0 -17 2 -4 10 10 7 -9 10 -62 10
l-77 0 24 -25 c23 -22 25 -31 24 -117 l0 -93 -50 99 c-44 86 -49 100 -35 108
35 20 12 28 -76 28 l-91 0 22 -24 c22 -24 23 -30 19 -163 -2 -79 -9 -147 -16
-159 -16 -31 -42 -37 -63 -18 -17 15 -19 34 -19 162 0 119 3 149 16 163 26 29
8 39 -73 39 l-76 0 21 -23z"/>
<path d="M3831 1391 c-47 -16 -56 -17 -68 -5 -11 11 -54 14 -198 14 l-184 0
21 -47 c30 -68 48 -78 66 -38 8 17 20 25 37 25 l25 0 0 -142 c0 -132 -2 -143
-22 -165 l-21 -23 79 -2 79 -2 -73 -3 c-43 -2 -70 -8 -67 -13 8 -12 165 -13
165 -1 0 4 -8 19 -19 32 -15 20 -19 49 -24 172 l-6 147 24 0 c14 0 36 -13 53
-31 l30 -32 12 37 c13 41 22 49 44 40 13 -5 16 -22 16 -79 0 -64 -2 -73 -20
-78 -20 -5 -29 -37 -9 -37 5 0 7 -4 4 -10 -3 -5 1 -10 9 -10 22 0 23 -95 1
-104 -36 -13 -10 -26 58 -28 l72 -2 -68 -3 c-39 -2 -65 -8 -62 -13 7 -12 165
-13 165 -2 0 5 -11 19 -25 32 -23 21 -26 31 -23 80 3 48 6 55 26 58 26 4 33
-11 58 -121 14 -60 21 -76 32 -72 12 4 13 3 2 -10 -18 -22 2 -19 46 7 33 20
49 22 146 19 59 -1 108 1 108 6 0 4 -9 22 -20 38 -23 34 -24 52 -10 91 l11 27
25 -36 c13 -20 29 -37 34 -37 4 0 17 12 28 28 l21 27 15 -35 c14 -33 13 -36
-7 -57 l-20 -23 84 -2 84 -2 -72 -3 c-43 -2 -73 -8 -73 -15 0 -7 62 -9 198 -6
187 4 201 6 243 29 64 35 89 89 89 194 0 102 -18 134 -93 169 -46 22 -68 26
-152 26 -94 0 -97 -1 -82 -18 14 -16 17 -43 17 -174 0 -145 -1 -156 -21 -174
-21 -19 -21 -19 72 -25 l94 -5 -96 -2 c-92 -2 -96 -1 -122 26 -15 15 -38 56
-51 90 l-24 61 31 -6 c27 -5 30 -4 23 13 -5 10 -12 31 -18 45 -10 28 -43 44
-54 27 -4 -6 -15 11 -26 38 -17 45 -17 51 -3 77 20 35 3 35 -24 1 -12 -15 -21
-23 -21 -19 0 5 7 17 17 27 15 17 13 18 -62 18 -76 0 -78 0 -61 -19 17 -18 17
-22 0 -70 -14 -37 -21 -47 -31 -40 -16 14 -28 5 -47 -33 -20 -39 -20 -38 3
-38 31 0 32 -12 5 -71 -30 -63 -60 -99 -85 -99 -20 0 -91 87 -108 131 -8 23
-6 28 15 38 28 12 64 67 64 96 0 25 -23 70 -35 70 -6 1 -25 9 -44 19 -51 27
-135 30 -200 7z m979 -61 c36 -20 52 -122 30 -202 -12 -40 -61 -88 -91 -88
-18 0 -19 9 -19 150 l0 150 31 0 c17 0 39 -4 49 -10z"/>
<path d="M6142 1396 c-21 -10 -38 -28 -47 -50 -18 -42 -18 -56 -4 -93 6 -15 9
-28 8 -28 -1 0 3 -9 9 -21 8 -14 35 -28 89 -43 43 -13 88 -30 101 -37 28 -18
28 -48 0 -68 -46 -32 -109 -13 -137 42 -7 12 -18 22 -26 22 -7 0 -15 6 -17 12
-3 7 -17 -14 -32 -47 -15 -33 -23 -61 -17 -63 5 -2 8 -9 5 -15 -3 -8 9 -13 33
-13 21 -1 70 -5 109 -9 57 -6 78 -4 108 10 70 34 101 112 69 175 -10 19 -22
35 -28 35 -5 1 -24 8 -40 17 -17 9 -47 19 -67 23 -20 4 -48 19 -63 35 -23 24
-25 31 -16 49 7 13 22 21 37 21 31 0 84 -29 84 -46 0 -9 21 -24 34 -24 8 0 48
101 43 107 -4 3 -22 7 -40 9 -17 1 -61 5 -97 8 -47 5 -74 2 -98 -8z"/>
<path d="M7390 1404 c-43 -15 -90 -38 -90 -46 0 -5 7 -11 15 -14 11 -5 15 -21
15 -59 0 -47 -3 -54 -22 -57 -33 -5 -34 -28 -1 -29 23 -1 24 -2 6 -6 -28 -5
-30 -23 -3 -23 18 0 20 -7 20 -57 0 -44 -5 -62 -22 -80 l-21 -23 129 -2 129
-2 -122 -3 c-80 -3 -123 -7 -123 -14 0 -8 41 -10 133 -7 182 6 219 27 219 125
0 43 -25 89 -42 78 -4 -3 -13 2 -20 9 -9 12 -7 17 9 25 40 22 50 113 14 143
-42 34 -171 59 -223 42z"/>
<path d="M4983 1379 l27 -21 0 -151 0 -151 -27 -23 -28 -22 80 -3 80 -2 -67
-3 c-38 -2 -68 -8 -68 -13 0 -6 67 -10 165 -10 91 0 165 3 165 7 0 4 -12 20
-27 36 -27 27 -28 34 -31 135 l-2 107 65 -127 c61 -121 67 -128 95 -128 l30 0
3 163 3 162 2 -167 2 -168 -30 0 c-16 0 -30 -4 -30 -10 0 -5 18 -10 40 -10
l40 0 0 179 c0 175 1 180 23 196 15 12 18 19 9 22 -6 3 -10 9 -6 14 3 5 -26 9
-67 9 l-72 0 23 -25 c20 -21 23 -37 27 -122 l3 -98 -52 103 c-48 94 -51 104
-35 113 35 20 15 27 -80 28 -98 1 -98 1 -75 -18 21 -18 22 -26 22 -165 0 -139
-1 -146 -24 -173 -20 -23 -28 -26 -43 -17 -16 10 -18 29 -21 164 -2 130 0 156
14 171 27 30 8 39 -79 39 l-82 -1 28 -20z"/>
<path d="M5604 1382 c-105 -67 -124 -232 -35 -320 83 -82 77 -80 221 -80 119
0 129 2 120 17 -5 10 -16 23 -24 31 -22 18 -23 152 -1 170 12 10 13 16 4 26
-8 10 -39 14 -109 14 -87 0 -98 2 -96 18 1 12 -6 17 -26 17 -34 -1 -35 6 -5
41 16 18 34 27 53 27 37 0 84 -30 84 -53 0 -15 28 -37 35 -28 14 16 55 111 50
116 -3 4 -20 7 -38 9 -200 15 -201 15 -233 -5z m106 -192 l60 0 0 -75 0 -75
-38 0 c-68 0 -113 69 -111 170 l1 45 14 -32 c14 -32 16 -33 74 -33z"/>
<path d="M6434 1378 c13 -18 16 -53 16 -172 0 -140 -1 -151 -22 -173 l-21 -23
94 -2 94 -2 -90 -6 c-62 -4 -84 -8 -72 -14 10 -5 59 -6 109 -2 162 12 209 58
216 205 4 112 -11 145 -88 184 -48 24 -65 27 -153 27 l-98 0 15 -22z m179 -47
c43 -17 61 -117 35 -203 -13 -43 -58 -88 -89 -88 -18 0 -19 9 -19 150 l0 150
24 0 c14 0 36 -4 49 -9z"/>
<path d="M6798 1377 c20 -21 22 -34 22 -138 -1 -135 -11 -187 -42 -210 -23
-18 -22 -18 52 -21 l75 -4 -72 -2 c-107 -3 -91 -22 17 -22 50 0 90 3 90 7 0 4
-14 22 -31 40 -31 31 -32 36 -36 135 -5 102 -4 103 14 76 10 -14 40 -72 68
-127 48 -99 50 -101 85 -103 l35 -1 -33 -4 c-42 -5 -32 -23 14 -23 l34 0 0
175 0 176 26 24 c27 26 18 33 -17 15 -10 -6 -19 -8 -19 -6 0 3 12 12 28 20 26
15 24 15 -50 16 l-77 0 24 -25 c23 -22 25 -31 24 -117 l0 -93 -49 95 c-42 83
-46 97 -34 111 8 8 14 19 14 22 0 4 -41 7 -92 7 l-91 0 21 -23z"/>
<path d="M7690 1391 c0 -5 7 -11 15 -15 11 -4 15 -22 15 -72 0 -59 -3 -70 -26
-91 -29 -27 -27 -49 5 -46 19 3 21 -2 21 -61 0 -48 -4 -65 -15 -70 -36 -13
-10 -26 58 -28 l72 -2 -67 -3 c-98 -5 -84 -23 17 -23 47 0 85 4 85 8 0 5 -11
19 -25 32 -22 20 -25 32 -25 87 l0 63 50 0 50 0 0 -60 c0 -49 -4 -62 -20 -72
-34 -22 -23 -28 53 -30 l72 -2 -67 -3 c-98 -5 -84 -23 17 -23 47 0 85 3 85 6
0 3 -11 19 -25 36 -24 29 -25 34 -25 175 0 120 3 150 16 164 26 29 8 39 -73
39 l-76 0 21 -23 c18 -19 22 -35 22 -85 l0 -62 -50 0 -50 0 0 57 c0 39 5 62
17 75 15 17 15 20 3 28 -19 12 -150 13 -150 1z"/>
<path d="M8070 1391 c0 -5 7 -14 15 -21 12 -10 15 -41 15 -163 0 -141 -1 -152
-22 -174 l-21 -23 89 -2 89 -2 -82 -3 c-52 -3 -83 -8 -83 -15 0 -19 197 -1
245 22 66 32 90 84 90 195 0 110 -12 133 -89 169 -47 22 -68 26 -150 26 -53 0
-96 -4 -96 -9z m216 -76 c31 -42 27 -168 -7 -224 -17 -28 -53 -51 -80 -51 -5
0 -9 64 -9 151 l0 152 42 -6 c23 -3 48 -13 54 -22z"/>
<path d="M5686 847 l-87 -117 22 -33 c79 -114 143 -197 150 -197 8 0 126 154
160 207 12 21 -7 53 -144 237 -14 18 -20 12 -101 -97z"/>
<path d="M5265 819 c-159 -4 -600 -15 -980 -24 -379 -9 -953 -22 -1275 -30
-322 -8 -740 -17 -930 -21 -190 -4 -365 -10 -390 -14 -57 -8 132 -15 1025 -35
627 -14 1083 -25 2383 -56 265 -6 485 -9 488 -6 3 3 -7 24 -22 48 l-27 43 27
47 c31 55 31 59 9 57 -10 0 -148 -5 -308 -9z"/>
<path d="M5960 819 c0 -7 11 -31 24 -54 l25 -42 -29 -43 c-16 -24 -27 -46 -25
-48 2 -3 224 1 492 7 1305 31 1741 42 2383 56 886 20 1078 26 1020 35 -25 4
-196 10 -380 14 -184 4 -609 13 -945 21 -1546 37 -1881 45 -2180 50 -176 3
-335 8 -352 11 -22 3 -33 1 -33 -7z"/>
</g>
</svg>
