<?xml version="1.0" standalone="no"?>
<!DOCTYPE svg PUBLIC "-//W3C//DTD SVG 20010904//EN"
 "http://www.w3.org/TR/2001/REC-SVG-20010904/DTD/svg10.dtd">
<svg version="1.0" xmlns="http://www.w3.org/2000/svg"
 width="626.000000pt" height="352.000000pt" viewBox="0 0 626.000000 352.000000"
 preserveAspectRatio="xMidYMid meet">

<g transform="translate(0.000000,352.000000) scale(0.100000,-0.100000)"
fill="#000000" stroke="none">
<path d="M0 2739 l0 -781 128 8 c70 4 179 8 242 9 63 2 149 7 190 12 43 5 88
6 105 1 17 -5 124 -8 240 -7 398 4 455 4 455 -2 0 -3 48 -7 108 -7 59 0 130
-5 159 -10 36 -6 53 -6 56 2 5 16 143 34 217 28 60 -5 162 -6 288 -4 29 1 52
6 52 12 0 7 25 9 76 4 58 -5 78 -4 84 6 6 10 12 11 22 2 8 -6 30 -13 49 -15
19 -2 40 -7 47 -11 7 -4 64 -5 125 -1 198 12 267 13 273 4 3 -5 22 -8 42 -8
69 1 156 -11 163 -23 4 -6 14 -8 23 -5 8 3 17 3 20 -2 3 -4 48 -8 100 -10 82
-2 96 0 96 13 0 9 7 16 15 16 8 0 15 8 15 18 0 13 -2 14 -9 3 -6 -9 -9 -5 -8
13 0 15 3 29 8 32 5 3 6 -2 3 -10 -5 -12 1 -16 20 -16 l27 0 -4 -85 c-3 -71
-8 -89 -26 -109 -22 -23 -22 -28 -15 -170 5 -103 11 -149 20 -157 8 -6 14 -23
13 -38 0 -24 -1 -24 -10 -6 -8 17 -9 16 -6 -7 3 -16 0 -28 -4 -28 -19 0 -8
-42 12 -47 17 -5 20 -12 17 -47 -3 -39 -2 -41 25 -38 28 3 30 0 41 -49 5 -21
1 -28 -19 -37 -24 -11 -25 -10 -26 21 0 30 -1 31 -11 10 -6 -13 -18 -23 -27
-23 -14 0 -16 -14 -13 -105 l2 -105 -27 -5 c-16 -3 -48 -10 -73 -17 -66 -16
-120 -16 -120 0 0 7 -4 11 -9 7 -20 -12 -33 41 -35 136 0 55 -3 99 -5 99 -2 0
-10 -8 -17 -18 -10 -13 -17 -15 -31 -6 -16 10 -18 24 -15 116 3 91 2 106 -13
112 -31 12 -36 -4 -32 -106 5 -102 1 -111 -22 -45 -10 30 -10 41 -1 52 10 12
9 15 -4 15 -20 0 -21 16 -1 24 11 4 16 18 15 43 0 21 2 52 6 68 6 34 -11 89
-25 80 -14 -8 -24 31 -13 52 11 24 3 120 -12 132 -7 6 -17 6 -26 1 -13 -8 -12
-10 3 -10 9 0 17 -5 17 -11 0 -11 -16 -9 -54 7 -14 5 -17 4 -12 -4 4 -7 2 -12
-3 -12 -6 0 -11 -13 -11 -30 0 -16 -4 -30 -10 -30 -5 0 -10 -11 -10 -25 0 -14
4 -25 9 -25 5 0 4 -14 -2 -30 -9 -23 -9 -35 1 -50 15 -24 16 -44 2 -35 -13 8
-13 12 -10 -243 2 -189 0 -221 -12 -217 -14 6 -47 -22 -47 -40 0 -5 -4 -11
-10 -13 -6 -2 -11 1 -11 7 0 6 -7 11 -15 11 -8 0 -15 -6 -15 -12 0 -8 -16 -14
-40 -15 -22 -2 -40 2 -40 7 0 6 5 10 11 10 8 0 8 5 -1 15 -7 9 -10 25 -6 41 8
30 -8 54 -35 54 -12 0 -19 -7 -19 -20 0 -11 6 -20 13 -20 8 0 7 -4 -3 -10 -10
-6 -11 -10 -3 -10 8 0 12 -13 11 -35 -1 -33 -3 -35 -38 -35 -23 0 -46 8 -60
20 -13 11 -32 21 -44 21 -17 1 -18 2 -3 6 9 2 17 13 17 24 0 21 -19 27 -21 7
-1 -7 -4 -2 -9 12 -10 34 -1 82 18 97 11 9 12 13 3 13 -7 0 -9 5 -6 11 4 6 0
16 -9 22 -13 10 -15 24 -9 79 4 47 10 68 19 68 14 0 8 30 -8 41 -10 7 -12 34
-4 64 2 11 5 30 5 43 1 12 7 22 16 22 8 0 15 9 15 20 0 13 -7 20 -19 20 -27 0
-47 28 -35 48 8 12 7 26 -1 46 -12 28 -12 28 -18 6 -5 -18 -11 -22 -31 -18
-34 7 -50 -13 -41 -52 5 -23 3 -30 -9 -30 -25 0 -19 -37 7 -45 13 -4 17 -8 10
-12 -10 -3 -12 -39 -11 -136 l2 -132 6 105 6 105 2 -81 c1 -45 5 -96 8 -113 5
-24 3 -31 -10 -31 -11 0 -16 -9 -17 -27 0 -25 -1 -26 -9 -8 -5 11 -9 15 -9 8
-1 -6 -4 -18 -7 -27 -4 -11 -1 -16 10 -16 13 0 16 -12 16 -66 l0 -66 -31 6
c-17 3 -39 6 -48 6 -14 0 -14 2 -1 10 12 7 12 10 1 10 -9 0 -11 8 -7 24 3 14
2 28 -4 31 -6 4 -10 -10 -10 -34 0 -23 -4 -41 -9 -41 -5 0 -18 -3 -28 -6 -15
-5 -15 -4 -3 5 13 9 12 11 -2 16 -10 4 -14 14 -11 26 3 10 0 25 -6 32 -6 8 -8
16 -5 19 3 3 -6 5 -19 4 -21 -1 -24 -6 -23 -29 1 -16 9 -33 17 -38 11 -7 10
-9 -5 -9 -12 0 -16 -5 -12 -15 4 -12 -3 -15 -32 -16 -20 0 -46 -4 -57 -8 -12
-5 -37 -2 -62 6 l-43 15 0 54 c0 30 -2 54 -4 54 -3 0 -16 -4 -31 -10 -32 -12
-42 6 -27 47 8 23 11 24 12 8 l1 -20 9 20 c7 17 9 17 9 3 1 -10 7 -18 15 -18
10 0 13 14 12 54 0 30 -4 58 -8 62 -5 4 -8 34 -8 66 0 43 -4 58 -14 58 -8 0
-16 7 -20 15 -3 8 -11 15 -17 15 -8 0 -8 -4 1 -15 10 -12 10 -15 -4 -15 -9 0
-16 5 -16 12 0 6 -3 9 -6 6 -3 -4 -17 0 -31 7 -28 14 -80 5 -95 -17 -4 -7 -6
-74 -5 -148 4 -152 2 -175 -18 -157 -7 7 -11 16 -8 20 3 4 5 42 6 85 0 75 0
77 -24 76 -87 -2 -89 -3 -89 -28 0 -20 -4 -23 -22 -18 -14 3 -19 1 -14 -6 3
-6 -3 -17 -15 -25 -20 -15 -20 -15 -1 -21 11 -4 24 -6 28 -5 20 3 34 -2 34
-12 0 -6 -10 -9 -23 -7 -28 5 -57 -20 -37 -32 11 -7 10 -13 -4 -34 -16 -25
-16 -26 3 -26 11 0 23 -5 26 -10 3 -6 -3 -10 -14 -10 -12 0 -21 -4 -21 -10 0
-5 -7 -10 -15 -10 -8 0 -15 -7 -15 -15 0 -8 -4 -15 -10 -15 -5 0 -10 7 -10 15
0 8 -8 15 -17 15 -16 1 -16 2 2 16 20 16 20 16 -3 9 -22 -6 -23 -4 -20 27 2
28 7 34 30 36 23 3 28 8 27 30 -1 17 -3 21 -6 10 -2 -10 -12 -18 -21 -17 -10
0 -12 3 -5 6 10 3 9 8 -2 20 -8 8 -13 19 -10 24 4 5 1 17 -4 26 -9 16 -10 14
-11 -9 0 -28 -30 -42 -30 -15 0 8 -3 7 -9 -3 -6 -8 -7 -19 -4 -25 4 -5 3 -7
-2 -3 -4 4 -13 4 -19 -2 -16 -12 -12 78 3 93 8 8 11 8 11 0 0 -12 48 -12 68 0
6 5 12 19 12 33 0 15 6 24 15 24 13 0 14 2 3 14 -7 8 -16 12 -20 9 -5 -2 -8 1
-8 6 0 6 4 11 10 11 5 0 2 9 -7 20 -17 20 -18 20 -25 0 -7 -20 -19 -20 -65 3
-16 7 -23 19 -23 39 0 15 4 28 9 28 4 0 6 -11 3 -25 -2 -15 0 -25 7 -25 7 0 9
5 5 13 -6 9 -5 9 8 -1 20 -16 43 8 33 37 -5 16 -1 20 27 24 l33 4 -32 1 c-28
2 -32 6 -30 25 1 14 -3 22 -13 22 -10 0 -14 -8 -12 -26 2 -21 -3 -28 -23 -33
-14 -4 -27 -15 -30 -29 -9 -40 -13 -151 -6 -202 l6 -50 6 40 c5 32 6 27 7 -30
0 -38 -2 -62 -6 -53 -5 11 -12 14 -21 9 -9 -6 -10 -11 -2 -15 6 -4 11 -16 11
-27 0 -15 -7 -19 -32 -19 -22 0 -39 -8 -53 -25 -25 -31 -54 -21 -36 14 7 11 8
21 3 21 -5 0 -12 25 -14 55 -3 39 -10 59 -24 69 -10 8 -15 18 -11 22 4 5 12 2
17 -6 7 -10 10 17 10 78 0 107 0 108 -20 105 -10 -1 -16 6 -16 17 0 22 7 25
23 9 13 -13 24 34 12 53 -6 8 -9 9 -9 2 0 -7 -9 -14 -20 -17 -15 -4 -20 0 -20
15 0 14 5 18 18 14 21 -7 54 13 35 21 -8 3 -13 24 -13 54 l0 49 -35 0 c-33 0
-75 -27 -75 -49 0 -5 -6 -12 -13 -14 -9 -4 -9 -8 -1 -14 6 -4 15 -22 18 -40 6
-27 4 -32 -15 -38 -15 -5 -18 -9 -9 -15 7 -4 13 -21 14 -37 1 -17 7 -38 15
-46 17 -22 7 -47 -19 -47 -26 0 -26 -13 2 -25 25 -12 40 -42 15 -32 -9 3 -18
-1 -21 -9 -4 -9 3 -18 19 -24 26 -10 34 -29 13 -31 -7 -1 -17 -2 -23 -4 -5 -1
-14 -3 -19 -3 -5 -1 -3 -9 5 -18 10 -13 10 -17 -2 -25 -9 -6 -10 -9 -2 -9 9 0
7 -11 -7 -34 -12 -23 -15 -36 -8 -38 6 -2 8 -9 4 -16 -11 -18 -34 -3 -29 19 4
14 0 19 -16 19 -23 0 -27 -10 -10 -27 8 -8 8 -13 0 -17 -6 -4 -12 -5 -12 -2
-1 3 -3 11 -4 16 -1 6 -3 15 -4 21 0 5 -4 8 -9 5 -4 -2 -18 1 -31 8 -30 17
-108 3 -127 -21 -7 -10 -14 -38 -14 -64 0 -48 -13 -69 -41 -69 -13 0 -17 8
-16 35 1 19 -2 35 -6 35 -4 0 -9 0 -12 0 -2 0 -1 -10 4 -22 10 -29 4 -48 -16
-48 -11 0 -14 7 -9 25 6 22 3 25 -19 23 -28 -3 -41 -24 -19 -32 19 -7 18 -36
-2 -36 -10 0 -14 6 -10 15 3 8 -4 21 -16 29 -19 14 -24 13 -47 -2 -48 -33 -81
-43 -102 -32 -10 6 -19 7 -19 3 0 -4 -5 0 -11 11 -6 10 -7 21 -3 25 5 3 9 15
9 26 0 15 9 22 35 26 l35 6 -33 2 c-19 0 -31 5 -27 11 3 5 0 7 -8 4 -11 -4
-14 2 -13 25 0 16 4 27 9 24 4 -2 5 -8 2 -13 -3 -5 -1 -11 4 -14 13 -8 8 19
-7 37 -9 11 -12 75 -12 244 1 126 -2 242 -6 257 -5 19 -2 31 7 37 12 7 12 9 0
9 -9 0 -11 8 -8 23 3 12 -3 37 -14 57 -11 20 -17 26 -14 13 4 -14 2 -23 -4
-23 -6 0 -11 11 -11 25 0 14 5 25 11 25 6 0 9 12 7 28 -2 19 -8 27 -20 26 -10
-1 -18 3 -18 8 0 13 -26 38 -40 38 -6 0 -9 -4 -6 -8 2 -4 -20 -9 -51 -9 -77
-2 -83 -11 -84 -118 0 -49 -5 -97 -10 -106 -5 -11 -5 -19 1 -21 5 -2 10 -73
10 -168 2 -289 2 -280 -17 -280 -16 0 -16 2 -3 11 13 9 13 10 0 6 -9 -2 -15
-16 -15 -33 -1 -16 -6 -29 -13 -28 -48 4 -47 3 -26 20 18 14 16 15 -31 10 -27
-2 -43 -2 -35 1 19 8 44 33 33 33 -5 0 -14 -5 -21 -12 -9 -9 -15 -9 -24 0 -15
15 -48 16 -48 2 0 -5 6 -10 13 -10 8 0 9 -3 1 -8 -16 -10 -19 -156 -4 -147 9
6 9 2 1 -14 -7 -12 -8 -21 -4 -20 21 4 33 -2 33 -16 0 -8 -9 -15 -20 -15 -18
0 -20 -7 -20 -64 l0 -64 106 5 c87 4 106 3 102 -8 -3 -10 -24 -14 -69 -15 -35
0 -81 -2 -101 -2 l-37 -2 0 -102 c1 -60 5 -109 12 -116 8 -10 8 -15 -1 -21 -8
-5 -11 -86 -11 -279 l0 -272 1669 0 c1290 0 1670 3 1670 12 0 9 3 9 12 0 9 -9
113 -12 406 -12 l393 0 -20 26 c-11 14 -18 31 -15 39 4 9 -4 15 -23 18 -15 2
10 5 57 5 47 0 113 3 146 7 34 4 64 3 67 -1 3 -5 -5 -10 -16 -11 -12 -1 -62
-5 -112 -8 -49 -4 -92 -8 -93 -10 -2 -2 -1 -12 2 -23 9 -27 41 -31 379 -38
274 -6 288 -6 302 12 7 10 17 15 21 11 5 -4 2 -12 -6 -18 -10 -5 249 -9 703
-8 l717 0 0 171 c0 161 -1 170 -17 157 -17 -13 -17 -13 0 7 14 17 17 41 17
144 0 108 -2 121 -15 110 -13 -11 -138 -11 -398 0 -5 0 -6 3 -4 8 3 4 92 4
199 1 117 -3 198 -2 205 4 10 7 13 318 13 1463 l0 1454 -3130 0 -3130 0 0
-781z m5210 301 c-12 -22 -25 -26 -35 -10 -5 8 19 24 43 29 1 1 -2 -8 -8 -19z
m104 -68 c7 -12 -7 -29 -25 -29 -14 0 -17 11 -10 35 2 6 30 1 35 -6z m-124
-117 c0 -28 -13 -31 -52 -13 l-26 13 31 11 c46 17 47 16 47 -11z m40 -150 c0
-19 -20 -29 -32 -17 -8 8 -7 16 2 26 14 17 30 12 30 -9z m60 1 c0 -2 -3 -12
-6 -20 -5 -13 -9 -14 -20 -5 -16 13 -9 29 12 29 8 0 14 -2 14 -4z m-1840 -195
c0 -21 6 -32 20 -36 15 -5 20 -15 20 -42 0 -30 -3 -35 -20 -30 -11 3 -23 1
-26 -4 -8 -14 -18 -11 -32 12 -9 13 -10 25 -4 32 6 7 11 28 13 47 3 41 7 50
20 50 5 0 9 -13 9 -29z m1860 -6 c0 -18 -5 -25 -19 -25 -26 0 -36 17 -21 35
19 23 40 18 40 -10z m-1923 -87 c-3 -7 -5 -2 -5 12 0 14 2 19 5 13 2 -7 2 -19
0 -25z m1913 -68 c0 -9 -31 -22 -37 -16 -3 2 -2 14 2 26 5 17 10 19 21 9 8 -6
14 -15 14 -19z m-1863 -32 c-3 -8 -6 -5 -6 6 -1 11 2 17 5 13 3 -3 4 -12 1
-19z m81 -10 c7 -7 12 -22 12 -35 0 -19 -5 -23 -30 -23 -23 0 -30 5 -30 19 0
46 23 64 48 39z m-81 -30 c-3 -8 -6 -5 -6 6 -1 11 2 17 5 13 3 -3 4 -12 1 -19z
m-2576 -27 c0 8 2 9 5 4 2 -6 24 -9 49 -7 36 3 45 1 45 -12 0 -9 -7 -16 -15
-16 -8 0 -15 -8 -15 -17 -1 -17 -1 -17 -14 0 -7 9 -25 17 -39 17 -17 0 -31 8
-38 23 -11 20 -11 21 4 8 14 -11 17 -11 18 0z m2576 -13 c-3 -8 -6 -5 -6 6 -1
11 2 17 5 13 3 -3 4 -12 1 -19z m-48 -21 c-2 -20 5 -47 18 -70 33 -55 32 -69
-1 -78 -36 -10 -43 -6 -43 26 0 13 3 23 7 20 3 -2 7 9 7 25 0 16 -3 27 -7 25
-3 -2 -6 7 -6 20 0 13 4 21 8 19 13 -8 9 11 -4 25 -10 11 -10 13 0 7 6 -4 12
-2 12 3 0 6 3 11 6 11 3 0 4 -15 3 -33z m-1876 16 c-7 -2 -19 -2 -25 0 -7 3
-2 5 12 5 14 0 19 -2 13 -5z m2114 -15 c-3 -8 -6 -5 -6 6 -1 11 2 17 5 13 3
-3 4 -12 1 -19z m1673 -37 c0 -17 -18 -21 -24 -6 -3 9 0 15 9 15 8 0 15 -4 15
-9z m-1851 -43 c0 -28 -2 -30 -9 -13 -12 28 -12 45 0 45 6 0 10 -15 9 -32z
m1852 -68 c5 0 9 -16 9 -36 0 -31 -3 -35 -22 -32 -20 3 -23 8 -20 43 4 53 14
78 19 48 3 -13 9 -23 14 -23z m-3834 -76 c-3 -3 -12 -4 -19 -1 -8 3 -5 6 6 6
11 1 17 -2 13 -5z m2195 -54 c5 0 8 -8 9 -17 0 -14 3 -13 11 5 11 22 14 22
122 16 61 -4 114 -11 117 -16 3 -5 24 -5 50 1 43 10 277 6 311 -5 10 -3 18
-10 18 -15 0 -26 31 -41 68 -33 l37 8 -42 4 c-31 2 -43 8 -43 19 0 12 7 14 28
9 15 -4 87 -9 160 -13 72 -3 132 -9 132 -13 0 -11 -79 -17 -83 -7 -1 5 -19 6
-40 2 -46 -9 -39 -25 12 -25 20 0 42 -5 47 -10 6 -6 42 -12 80 -15 52 -3 62
-2 39 5 -26 8 -25 8 10 3 22 -3 58 -7 80 -7 40 -1 82 -19 98 -40 5 -6 6 2 2
18 -5 26 -4 27 10 13 8 -9 15 -20 15 -26 0 -6 7 -11 16 -11 8 0 13 -4 10 -9
-3 -5 -14 -7 -25 -4 -11 3 -21 -2 -24 -11 -4 -10 -1 -16 8 -16 7 0 17 -5 21
-11 4 -7 0 -9 -12 -5 -36 11 -45 -25 -45 -175 1 -118 -1 -139 -14 -139 -9 0
-15 -9 -15 -25 0 -14 6 -25 13 -25 9 0 14 -17 16 -52 2 -29 4 -68 5 -85 2 -22
-2 -33 -11 -33 -7 0 -13 -11 -13 -25 0 -16 6 -25 15 -25 13 0 15 -17 14 -99
-1 -86 -3 -99 -18 -96 -11 1 -16 12 -16 39 0 31 -3 36 -17 32 -10 -2 -21 0
-24 5 -3 5 -10 7 -15 3 -18 -11 -46 25 -41 51 3 19 0 25 -13 25 -13 0 -16 -6
-13 -25 3 -14 1 -28 -4 -31 -4 -3 -6 -10 -2 -15 3 -5 2 -9 -3 -8 -4 1 -17 1
-27 0 -16 -1 -17 -4 -8 -13 7 -7 12 -22 12 -35 0 -21 -3 -23 -39 -17 -24 4
-41 2 -45 -5 -5 -7 -13 -8 -25 -1 -18 9 -113 12 -258 7 l-73 -2 0 63 c0 36 -4
62 -10 62 -7 0 -10 -24 -8 -62 l3 -63 -80 0 c-69 0 -80 -2 -83 -18 -4 -18 -4
-18 -17 0 -13 17 -14 17 -29 -2 -20 -27 -43 -7 -27 23 6 11 11 32 11 46 0 20
5 26 23 27 19 2 20 2 2 6 -20 4 -45 44 -45 70 0 25 30 73 45 73 8 0 15 9 15
20 0 13 -5 17 -14 14 -8 -3 -19 3 -25 14 -9 17 -8 22 7 26 9 3 -2 3 -25 0 -29
-4 -43 -2 -43 6 0 6 -4 8 -10 5 -5 -3 -10 -2 -10 4 0 5 5 11 11 13 7 2 6 8 -4
17 -14 11 -17 7 -23 -26 -4 -21 -12 -42 -18 -46 -8 -6 -7 -10 3 -14 11 -5 11
-7 0 -14 -10 -7 -11 -11 -3 -16 7 -5 12 -47 13 -113 1 -58 -2 -100 -6 -93 -5
6 -24 13 -43 15 l-35 3 -3 143 c-2 122 0 142 13 142 11 0 15 10 15 35 0 24 -5
35 -15 35 -12 0 -15 19 -15 114 0 92 3 115 15 120 19 7 20 55 2 62 -9 3 -15
26 -16 65 -1 33 -7 73 -13 87 -7 15 -12 35 -13 45 -4 30 -15 32 -15 3 0 -18
-5 -26 -12 -24 -7 3 -19 -1 -26 -9 -14 -14 -55 -16 -85 -4 -16 6 -16 9 -5 18
7 6 22 13 33 16 16 4 15 5 -5 6 -15 0 -30 -3 -35 -8 -6 -6 -11 18 -12 67 -2
76 -2 77 15 50 9 -16 20 -28 24 -28z m1435 -117 c-3 -10 -5 -4 -5 12 0 17 2
24 5 18 2 -7 2 -21 0 -30z m-1602 7 c-3 -5 -1 -10 5 -10 6 0 8 -4 5 -10 -3 -5
-2 -10 3 -10 5 0 7 -11 4 -25 -9 -47 -37 -22 -37 32 0 21 5 33 13 33 7 0 10
-4 7 -10z m2001 -45 c-7 -16 -18 -24 -33 -23 -21 2 -22 6 -14 61 0 5 5 6 10 2
5 -3 13 0 17 6 5 9 11 7 19 -5 10 -13 10 -23 1 -41z m-406 -10 c7 16 9 12 9
-18 1 -23 -3 -36 -9 -32 -5 3 -10 -1 -10 -10 0 -9 5 -13 10 -10 12 7 11 16 15
-227 3 -159 2 -186 -10 -181 -9 3 -17 -2 -21 -13 -3 -11 -9 -26 -12 -34 -11
-24 -2 -70 14 -70 20 0 17 -28 -4 -34 -14 -5 -17 -14 -14 -37 3 -19 9 -28 17
-25 15 5 52 -31 42 -41 -4 -3 -7 -2 -7 4 0 8 -8 8 -25 0 -15 -8 -25 -20 -25
-34 0 -35 -10 -52 -27 -46 -11 4 -14 2 -9 -5 4 -7 2 -12 -3 -12 -6 0 -11 12
-11 26 0 14 -7 32 -15 40 -8 9 -15 29 -15 45 0 29 9 33 57 32 7 -1 10 4 7 9
-3 5 -19 6 -35 3 -26 -6 -29 -4 -29 19 0 19 5 26 20 26 15 0 20 7 20 25 0 18
-5 25 -19 25 -17 0 -19 8 -19 85 0 79 1 85 20 85 19 0 20 4 14 43 -4 23 -12
47 -17 52 -7 7 -8 1 -4 -17 5 -18 3 -28 -4 -28 -6 0 -12 12 -12 28 -1 15 -3
48 -4 74 -3 40 0 48 17 54 21 6 39 43 29 59 -6 11 -8 17 -10 41 0 8 -5 12 -11
9 -5 -3 -10 0 -10 8 0 19 -39 59 -52 51 -5 -4 -2 5 7 20 14 21 25 26 61 26 24
0 44 -4 44 -10 0 -5 -20 -10 -44 -10 -25 0 -47 -4 -50 -9 -3 -4 11 -7 32 -7
20 1 45 -5 55 -13 11 -9 17 -10 17 -3 0 7 -6 12 -12 12 -8 1 -6 6 5 14 9 7 18
26 19 42 1 22 2 19 6 -11 3 -32 6 -36 12 -20z m-4807 36 c17 -6 16 -8 -6 -20
-17 -9 -23 -19 -20 -35 3 -15 0 -23 -9 -23 -9 0 -15 13 -16 34 -4 52 8 62 51
44z m5052 1 c-17 -12 -17 -42 0 -48 8 -3 15 -11 15 -16 0 -6 -6 -5 -15 2 -12
10 -15 10 -15 -3 0 -9 5 -19 10 -22 14 -9 13 -58 -2 -73 -9 -9 -9 -12 0 -12 7
0 12 5 12 10 0 6 9 10 19 10 22 0 40 -20 19 -21 -7 0 -4 -4 7 -9 27 -12 37
-12 30 0 -3 5 6 12 20 16 26 6 32 22 15 42 -6 6 -7 10 -4 7 4 -3 13 3 20 13
12 15 13 11 8 -24 -5 -36 -3 -42 15 -47 27 -7 18 -33 -14 -41 -12 -3 -25 -12
-28 -20 -4 -10 0 -12 14 -9 10 3 19 0 19 -6 0 -6 5 -10 12 -8 6 1 14 -7 16
-17 3 -14 0 -17 -11 -13 -9 3 -18 -1 -21 -9 -10 -25 -7 -31 14 -37 11 -3 20
-12 20 -21 0 -19 -52 -35 -58 -18 -5 15 -42 16 -42 2 0 -5 -7 -10 -15 -10 -18
0 -20 -26 -2 -33 6 -3 0 -6 -15 -6 -21 -1 -28 -6 -28 -20 0 -26 -12 -32 -49
-25 -31 7 -31 7 -27 63 2 36 8 56 17 56 6 0 13 8 15 18 3 21 -3 22 -23 2 -8
-9 -22 -15 -30 -13 -20 4 -12 23 10 22 19 -1 19 -1 11 20 -3 8 -12 12 -20 9
-10 -4 -14 3 -14 22 0 16 4 24 11 20 17 -11 51 37 47 67 -3 17 -1 25 6 21 6
-4 5 1 -3 10 -7 9 -10 17 -7 17 4 0 0 10 -8 22 -9 12 -16 37 -16 55 0 26 4 33
20 33 11 0 20 7 20 15 0 8 8 15 18 15 9 0 13 -4 7 -8z m-116 -40 c0 -11 -2
-12 -6 -5 -3 8 -14 11 -29 7 -20 -5 -24 -2 -24 14 0 19 3 20 30 11 18 -7 30
-18 29 -27z m-1782 13 c-4 -8 -2 -17 4 -20 13 -8 2 -25 -17 -25 -9 0 -14 11
-14 30 0 21 5 30 16 30 10 0 14 -6 11 -15z m313 -39 c0 -17 -9 -42 -20 -56
l-19 -25 -23 22 c-25 25 -17 43 20 46 29 2 16 17 -14 17 -14 0 -23 4 -20 9 3
5 15 7 26 4 19 -5 26 5 21 31 -1 5 5 4 13 -4 9 -7 16 -27 16 -44z m-3405 -6
c3 -5 -1 -10 -10 -10 -9 0 -13 5 -10 10 3 6 8 10 10 10 2 0 7 -4 10 -10z
m3297 -22 c-7 -7 -12 -8 -12 -2 0 14 12 26 19 19 2 -3 -1 -11 -7 -17z m135
-10 c-3 -7 -5 -2 -5 12 0 14 2 19 5 13 2 -7 2 -19 0 -25z m-350 0 c-3 -8 -6
-5 -6 6 -1 11 2 17 5 13 3 -3 4 -12 1 -19z m2090 -5 c2 -6 -3 -13 -12 -16 -10
-5 -15 0 -15 14 0 21 21 22 27 2z m-5084 -20 c-7 -2 -19 -2 -25 0 -7 3 -2 5
12 5 14 0 19 -2 13 -5z m3021 -28 c4 -14 11 -25 16 -25 18 0 11 -25 -16 -61
-15 -19 -24 -26 -21 -17 3 9 1 18 -5 20 -6 2 -11 27 -12 56 -1 42 2 52 15 52
10 0 20 -11 23 -25z m1532 -12 c-10 -10 -19 5 -10 18 6 11 8 11 12 0 2 -7 1
-15 -2 -18z m-4556 -18 c0 -8 -9 -15 -20 -15 -11 0 -20 7 -20 15 0 8 9 15 20
15 11 0 20 -7 20 -15z m3400 1 c0 -3 -4 -8 -10 -11 -5 -3 -10 -1 -10 4 0 6 5
11 10 11 6 0 10 -2 10 -4z m-3413 -42 c-3 -3 -12 -4 -19 -1 -8 3 -5 6 6 6 11
1 17 -2 13 -5z m5183 -18 c0 -3 -4 -8 -10 -11 -5 -3 -10 -1 -10 4 0 6 5 11 10
11 6 0 10 -2 10 -4z m-5190 -10 c0 -3 -4 -8 -10 -11 -5 -3 -10 -1 -10 4 0 6 5
11 10 11 6 0 10 -2 10 -4z m3217 -58 c-2 -13 -4 -3 -4 22 0 25 2 35 4 23 2
-13 2 -33 0 -45z m-47 27 c0 -23 -2 -24 -20 -15 -21 11 -25 22 -13 33 15 16
33 6 33 -18z m1990 -4 c0 -24 7 -32 38 -45 20 -9 47 -23 60 -32 20 -15 22 -15
16 -1 -3 9 -1 24 5 34 6 11 11 13 11 5 0 -7 5 -10 12 -6 7 4 8 3 4 -5 -4 -6
-12 -9 -17 -6 -5 4 -9 1 -9 -4 0 -6 5 -11 11 -11 7 0 8 -12 4 -32 -4 -21 -3
-28 3 -20 6 9 9 -25 9 -92 0 -72 4 -111 13 -121 17 -21 1 -38 -31 -33 -19 2
-23 8 -21 27 3 31 -14 42 -45 28 -23 -10 -32 -27 -14 -27 5 0 11 -9 14 -20 3
-11 14 -20 25 -20 11 0 22 -8 25 -19 4 -16 -1 -20 -27 -23 -20 -2 -30 -8 -28
-17 2 -9 -2 -11 -15 -6 -10 4 -26 8 -35 9 -10 0 -18 6 -18 13 0 16 -12 17 -27
2 -14 -14 -27 5 -19 27 5 13 8 13 29 -1 13 -8 27 -12 30 -9 4 4 19 7 34 8 16
1 26 6 25 11 -2 6 -8 9 -13 7 -5 -1 -9 2 -9 7 0 4 -11 6 -25 4 -15 -3 -31 1
-41 12 -11 10 -25 14 -40 11 -27 -7 -39 7 -26 30 6 11 11 13 16 5 4 -6 18 -11
30 -11 27 0 40 31 22 55 -7 10 -9 54 -6 138 3 76 1 125 -5 129 -6 4 -1 8 10 9
l20 0 -20 9 c-19 8 -19 9 3 9 18 1 22 -4 22 -28z m-5142 -21 c1 -33 -3 -40
-19 -40 -14 0 -19 7 -19 28 0 26 15 52 31 52 4 0 7 -18 7 -40z m3349 -93 c-2
-23 -3 -1 -3 48 0 50 1 68 3 42 2 -26 2 -67 0 -90z m2002 116 c8 -13 10 -14
11 -4 0 8 2 12 5 9 12 -12 -7 -34 -29 -33 -30 0 -40 10 -33 30 8 20 34 19 46
-2z m-5522 -45 c-2 -13 -4 -5 -4 17 -1 22 1 32 4 23 2 -10 2 -28 0 -40z m5343
22 c0 -5 -2 -10 -4 -10 -3 0 -8 5 -11 10 -3 6 -1 10 4 10 6 0 11 -4 11 -10z
m120 0 c0 -5 -7 -7 -15 -4 -8 4 -15 8 -15 10 0 2 7 4 15 4 8 0 15 -4 15 -10z
m-2194 -26 c16 -23 16 -26 1 -42 -16 -15 -18 -14 -37 6 -19 20 -19 23 -5 28 9
4 14 13 11 20 -9 24 13 15 30 -12z m205 -15 c15 -29 3 -86 -19 -86 -25 0 -43
23 -39 49 10 59 37 76 58 37z m2067 -27 c-10 -12 -10 -14 -1 -8 10 5 11 1 4
-16 -9 -26 -4 -51 10 -42 5 3 9 0 9 -5 0 -14 -17 -14 -25 -1 -11 17 -23 1 -19
-23 l5 -22 -12 22 c-9 18 -8 25 5 38 21 22 20 32 -4 45 -24 13 -26 30 -5 30 8
0 15 5 15 11 0 8 5 8 15 -1 12 -10 13 -16 3 -28z m442 7 c0 -6 -4 -7 -10 -4
-5 3 -10 11 -10 16 0 6 5 7 10 4 6 -3 10 -11 10 -16z m-5815 -32 c0 -22 -5
-33 -17 -35 -14 -3 -18 4 -18 31 0 18 3 36 6 40 14 13 30 -6 29 -36z m2566 16
c-8 -15 -10 -15 -11 -2 0 17 10 32 18 25 2 -3 -1 -13 -7 -23z m619 12 c0 -8
-4 -15 -10 -15 -5 0 -7 7 -4 15 4 8 8 15 10 15 2 0 4 -7 4 -15z m2586 -6 c3
-6 -3 -21 -15 -32 l-21 -21 0 22 c0 20 -10 27 -32 23 -5 0 -8 4 -8 9 0 14 67
13 76 -1z m-5936 -119 c0 -47 -4 -80 -10 -80 -6 0 -10 33 -10 80 0 47 4 80 10
80 6 0 10 -33 10 -80z m1535 61 c-4 -13 0 -23 11 -29 13 -7 14 -13 4 -31 -6
-13 -9 -29 -6 -36 5 -14 -17 -28 -28 -18 -8 9 -8 118 1 126 13 14 24 6 18 -12z
m3715 -1 c0 -11 -7 -20 -15 -20 -8 0 -15 9 -15 20 0 11 7 20 15 20 8 0 15 -9
15 -20z m708 -5 c-3 -3 -9 2 -12 12 -6 14 -5 15 5 6 7 -7 10 -15 7 -18z
m-5801 -11 c-3 -3 -12 -4 -19 -1 -8 3 -5 6 6 6 11 1 17 -2 13 -5z m783 -16 c0
-19 -2 -20 -10 -8 -13 19 -13 30 0 30 6 0 10 -10 10 -22z m2420 3 c0 -6 -4
-13 -10 -16 -5 -3 -10 1 -10 9 0 9 5 16 10 16 6 0 10 -4 10 -9z m-3198 -13 c2
-7 3 -44 2 -83 -2 -38 -3 -78 -3 -87 -1 -10 -7 -18 -15 -18 -11 0 -14 20 -15
92 0 50 2 95 5 100 8 12 21 10 26 -4z m5393 2 c3 -5 1 -10 -4 -10 -6 0 -11 5
-11 10 0 6 2 10 4 10 3 0 8 -4 11 -10z m295 6 c0 -3 -4 -8 -10 -11 -5 -3 -10
-1 -10 4 0 6 5 11 10 11 6 0 10 -2 10 -4z m102 -3 c-6 -3 -9 -10 -5 -16 4 -7
-1 -6 -10 2 -21 17 -21 17 6 18 12 0 16 -1 9 -4z m-1325 -85 c-2 -18 -4 -6 -4
27 0 33 2 48 4 33 2 -15 2 -42 0 -60z m442 43 c23 -17 23 -19 5 -25 -13 -4
-19 -16 -21 -38 0 -18 1 -28 4 -21 6 16 33 5 33 -14 0 -11 -6 -14 -22 -9 -13
3 -28 6 -35 6 -15 0 -27 61 -19 95 8 30 22 31 55 6z m178 3 c8 -20 -13 -42
-27 -28 -12 12 -3 44 11 44 5 0 12 -7 16 -16z m311 0 c18 -8 32 -18 32 -20 0
-3 -4 -3 -9 0 -5 3 -11 -1 -15 -9 -3 -8 -1 -15 4 -15 6 0 10 -5 10 -12 0 -6
-3 -8 -7 -5 -9 9 -43 -22 -43 -40 0 -15 -2 -15 -24 -7 -22 9 -21 35 2 28 10
-4 13 -3 6 3 -20 15 -22 37 -6 66 9 15 17 27 18 27 0 0 15 -7 32 -16z m-2041
-26 c-3 -8 -6 -5 -6 6 -1 11 2 17 5 13 3 -3 4 -12 1 -19z m-3457 -8 c0 -5 -4
-10 -9 -10 -6 0 -13 5 -16 10 -3 6 1 10 9 10 9 0 16 -4 16 -10z m4870 -31 c0
-19 -19 -22 -32 -4 -9 12 11 37 23 29 5 -3 9 -14 9 -25z m-3530 11 c0 -5 -4
-10 -10 -10 -5 0 -10 5 -10 10 0 6 5 10 10 10 6 0 10 -4 10 -10z m17 -27 c-3
-10 -5 -4 -5 12 0 17 2 24 5 18 2 -7 2 -21 0 -30z m33 0 c0 -26 -3 -34 -11
-26 -9 9 -3 63 7 63 2 0 4 -17 4 -37z m2247 31 c-3 -3 -12 -4 -19 -1 -8 3 -5
6 6 6 11 1 17 -2 13 -5z m-2159 -29 c-3 -3 -9 2 -12 12 -6 14 -5 15 5 6 7 -7
10 -15 7 -18z m3322 -5 c0 -5 -4 -10 -10 -10 -5 0 -10 5 -10 10 0 6 5 10 10
10 6 0 10 -4 10 -10z m270 -10 c0 -5 -5 -10 -11 -10 -5 0 -7 5 -4 10 3 6 8 10
11 10 2 0 4 -4 4 -10z m25 1 c3 -5 1 -12 -5 -16 -5 -3 -10 1 -10 9 0 18 6 21
15 7z m-1638 -143 c-2 -29 -3 -8 -3 47 0 55 1 79 3 53 2 -26 2 -71 0 -100z
m-2654 82 c-3 -11 -11 -16 -19 -13 -14 5 -19 35 -7 46 11 12 31 -13 26 -33z
m654 -17 c-3 -10 -5 -2 -5 17 0 19 2 27 5 18 2 -10 2 -26 0 -35z m-1578 -32
l-1 -26 -8 25 -8 25 -1 -25 c-1 -19 -3 -22 -10 -11 -6 9 -6 22 0 33 6 10 7 24
4 31 -4 6 1 3 9 -7 9 -11 16 -31 15 -45z m2921 37 c0 -10 -7 -18 -15 -18 -8 0
-15 8 -15 18 0 10 7 19 15 19 8 0 15 -9 15 -19z m538 -30 c-2 -24 -9 -43 -17
-46 -8 -3 -11 0 -7 7 4 6 2 11 -3 11 -6 0 -11 14 -11 31 0 17 4 28 10 24 6 -3
10 -1 10 4 0 6 5 11 11 11 6 0 9 -17 7 -42z m-3241 26 c-3 -3 -12 -4 -19 -1
-8 3 -5 6 6 6 11 1 17 -2 13 -5z m5076 -8 c4 -10 0 -14 -14 -13 -22 1 -25 13
-6 20 6 3 13 6 13 6 1 1 4 -5 7 -13z m457 10 c0 -3 -4 -8 -10 -11 -5 -3 -10
-1 -10 4 0 6 5 11 10 11 6 0 10 -2 10 -4z m-4320 -21 c0 -8 -4 -15 -10 -15 -5
0 -10 7 -10 15 0 8 5 15 10 15 6 0 10 -7 10 -15z m3660 -28 c0 -16 -2 -16 -30
-2 -36 19 -37 23 -7 34 24 9 37 -2 37 -32z m-2300 23 c0 -5 -4 -10 -10 -10 -5
0 -10 5 -10 10 0 6 5 10 10 10 6 0 10 -4 10 -10z m620 -10 c0 -13 -7 -20 -20
-20 -22 0 -28 25 -7 33 22 10 27 7 27 -13z m-3193 4 c-3 -3 -12 -4 -19 -1 -8
3 -5 6 6 6 11 1 17 -2 13 -5z m2703 2 c0 -2 -8 -10 -17 -17 -16 -13 -17 -12
-4 4 13 16 21 21 21 13z m2626 -20 c4 -17 15 -26 32 -29 15 -3 3 -3 -26 -1
-49 2 -54 1 -63 -23 -5 -15 -8 -32 -5 -39 3 -8 0 -16 -6 -20 -6 -4 -8 -3 -4 4
7 12 -29 26 -44 17 -5 -3 -10 0 -11 7 0 10 -2 10 -6 0 -6 -15 -23 -6 -23 14 0
8 7 14 15 14 8 0 15 7 15 15 0 13 4 14 20 5 18 -9 25 -8 18 4 -7 10 35 44 48
39 8 -3 14 0 14 6 0 21 20 11 26 -13z m-5319 -26 c3 -10 2 -11 -4 -4 -4 6 -15
14 -23 17 -11 5 -9 6 4 4 11 -1 21 -9 23 -17z m743 0 c0 -5 -2 -10 -4 -10 -3
0 -8 5 -11 10 -3 6 -1 10 4 10 6 0 11 -4 11 -10z m188 -7 c-2 -9 -8 -18 -15
-20 -7 -3 -9 3 -6 16 6 25 26 28 21 4z m29 -5 c-3 -8 -6 -5 -6 6 -1 11 2 17 5
13 3 -3 4 -12 1 -19z m316 9 c4 -10 -2 -13 -19 -9 -33 6 -41 22 -11 22 14 0
27 -6 30 -13z m34 7 c-3 -3 -12 -4 -19 -1 -8 3 -5 6 6 6 11 1 17 -2 13 -5z
m1368 -3 c3 -5 1 -12 -5 -16 -5 -3 -10 1 -10 9 0 18 6 21 15 7z m2440 -19 c18
-10 18 -11 3 -12 -10 0 -18 -4 -18 -8 0 -12 -44 -12 -51 0 -21 33 22 47 66 20z
m293 -7 c-3 -3 -9 2 -12 12 -6 14 -5 15 5 6 7 -7 10 -15 7 -18z m75 18 c-7 -2
-19 -2 -25 0 -7 3 -2 5 12 5 14 0 19 -2 13 -5z m107 3 c0 -2 -15 -6 -34 -8
-19 -2 -32 0 -30 4 5 8 64 12 64 4z m-5715 -17 c8 -12 -14 -69 -26 -69 -5 0
-11 11 -15 25 -9 37 24 72 41 44z m-56 -36 c0 -21 -3 -31 -6 -23 -3 8 -10 18
-16 21 -12 8 -2 39 13 39 5 0 10 -17 9 -37z m608 0 c-3 -10 -5 -4 -5 12 0 17
2 24 5 18 2 -7 2 -21 0 -30z m4261 8 c-1 -15 2 -33 6 -40 5 -7 -2 -11 -18 -11
-14 0 -26 5 -26 10 0 6 7 10 15 10 8 0 15 4 15 9 0 5 -7 11 -15 15 -8 3 -15
10 -15 17 0 6 7 9 15 5 8 -3 15 -1 15 4 0 6 2 10 4 10 3 0 4 -13 4 -29z
m-4991 -9 c24 2 37 8 35 16 -1 6 2 12 7 12 5 0 8 -17 8 -37 -2 -38 -3 -38 -50
-43 -57 -7 -73 0 -59 26 7 12 7 25 1 39 -10 19 -9 19 5 2 10 -13 25 -17 53
-15z m1018 19 c3 -5 1 -12 -5 -16 -5 -3 -10 1 -10 9 0 18 6 21 15 7z m95 0 c0
-6 -4 -13 -10 -16 -5 -3 -10 1 -10 9 0 9 5 16 10 16 6 0 10 -4 10 -9z m510 1
c0 -5 -12 -15 -26 -22 -22 -12 -27 -12 -34 0 -7 12 -3 17 18 21 40 10 42 10
42 1z m3447 -39 c-3 -10 -5 -2 -5 17 0 19 2 27 5 18 2 -10 2 -26 0 -35z m64
31 c11 -14 10 -18 -6 -30 -24 -18 -34 -18 -41 1 -15 38 21 60 47 29z m88 -24
c5 0 6 -11 3 -25 -2 -14 -11 -25 -19 -25 -9 0 -13 6 -9 15 3 8 0 15 -6 15 -9
0 -9 3 0 12 7 7 13 21 13 33 2 18 2 18 6 -2 2 -13 8 -23 12 -23z m398 26 c0
-8 -8 -11 -19 -8 -10 2 -18 8 -18 13 0 5 8 9 18 9 10 0 19 -6 19 -14z m-4441
-16 c13 25 13 25 14 -12 0 -36 0 -37 -40 -35 -46 2 -49 11 -17 45 l22 24 3
-23 4 -23 14 24z m294 16 c0 -11 -19 -15 -25 -6 -3 5 1 10 9 10 9 0 16 -2 16
-4z m310 -41 c0 -41 -26 -49 -36 -11 -7 29 1 46 22 46 9 0 14 -11 14 -35z m49
22 c-1 -7 -5 -23 -9 -37 -7 -22 -8 -22 -10 -5 -2 15 -4 12 -10 -10 -7 -27 -8
-26 -9 15 -1 39 2 46 19 47 11 1 20 -4 19 -10z m901 3 c0 -5 -4 -10 -9 -10 -6
0 -13 5 -16 10 -3 6 1 10 9 10 9 0 16 -4 16 -10z m2427 -22 c-3 -7 -5 -2 -5
12 0 14 2 19 5 13 2 -7 2 -19 0 -25z m-5090 0 c-3 -8 -6 -5 -6 6 -1 11 2 17 5
13 3 -3 4 -12 1 -19z m3686 6 c19 -7 18 -30 -1 -28 -7 1 -21 2 -31 3 -17 1
-19 7 -12 39 1 2 7 1 14 -2 6 -3 20 -9 30 -12z m1572 -52 c-3 -4 -9 -2 -13 3
-4 6 -15 11 -24 13 -13 2 -16 -2 -12 -15 5 -17 5 -17 -6 -1 -6 10 -18 15 -28
12 -14 -5 -13 -2 3 11 13 10 30 14 48 11 23 -5 27 -2 29 17 0 12 3 7 5 -11 3
-19 2 -37 -2 -40z m329 51 c-6 -2 -9 -15 -6 -29 4 -25 3 -25 -51 -23 -38 2
-54 6 -50 14 2 7 12 12 21 11 10 0 18 7 20 19 2 18 8 20 40 16 20 -2 32 -6 26
-8z m-1014 -3 c0 -5 -4 -10 -9 -10 -6 0 -13 5 -16 10 -3 6 1 10 9 10 9 0 16
-4 16 -10z m44 -5 c-4 -8 -11 -12 -16 -9 -6 4 -5 10 3 15 19 12 19 11 13 -6z
m696 2 c0 -21 -12 -28 -27 -16 -19 16 -16 29 7 29 11 0 20 -6 20 -13z m-4518
-19 c-6 -6 -15 -8 -19 -4 -4 4 -1 11 7 16 19 12 27 3 12 -12z m4539 -1 c-10
-9 -11 -8 -5 6 3 10 9 15 12 12 3 -3 0 -11 -7 -18z m-4321 3 c0 -5 -2 -10 -4
-10 -3 0 -8 5 -11 10 -3 6 -1 10 4 10 6 0 11 -4 11 -10z m1766 -40 c10 -21 23
-36 28 -33 5 3 7 0 4 -7 -2 -7 -14 -17 -26 -21 -19 -7 -25 -4 -34 16 -12 26
-37 34 -40 13 0 -7 -2 -32 -2 -55 -1 -42 8 -50 47 -44 4 0 7 -8 7 -19 0 -11
-6 -20 -14 -20 -8 0 -13 -8 -12 -17 2 -10 -4 -21 -13 -25 -15 -6 -15 -7 0 -7
11 -1 16 -11 17 -31 1 -27 -3 -30 -29 -30 -16 0 -30 6 -30 13 -6 48 -4 125 2
121 5 -3 8 16 7 41 -1 25 -6 45 -11 45 -4 0 -6 -4 -3 -8 2 -4 0 -14 -6 -22 -8
-12 -9 -12 -4 3 5 15 -2 17 -52 19 l-57 1 62 6 c34 3 63 8 65 11 20 26 38 63
38 79 0 32 35 14 56 -29z m1780 27 c8 3 14 -1 14 -9 0 -10 -14 -13 -55 -12
-31 1 -59 5 -63 9 -4 4 3 4 16 1 13 -5 22 -3 22 3 0 6 7 8 15 5 9 -4 18 1 22
12 7 17 8 17 11 2 2 -10 9 -15 18 -11z m884 -7 c32 -29 33 -31 17 -47 -16 -16
-17 -16 -17 4 0 11 -7 26 -15 33 -10 9 -15 9 -15 1 0 -6 -7 -11 -15 -11 -16 0
-19 9 -9 34 9 22 16 20 54 -14z m-3890 9 c0 -6 -7 -9 -15 -6 -8 4 -17 2 -19
-2 -3 -5 -17 -6 -32 -3 -32 6 -16 17 31 20 21 2 35 -2 35 -9z m2370 1 c0 -5
-4 -10 -10 -10 -5 0 -10 5 -10 10 0 6 5 10 10 10 6 0 10 -4 10 -10z m-3530
-15 c0 -8 -4 -15 -10 -15 -5 0 -10 7 -10 15 0 8 5 15 10 15 6 0 10 -7 10 -15z
m3860 0 c7 -8 8 -15 2 -15 -11 0 -25 -37 -22 -62 1 -10 -4 -18 -9 -18 -6 0
-11 10 -11 23 0 12 -4 17 -8 12 -11 -15 -60 -14 -66 1 -3 9 2 14 14 14 14 0
18 5 13 16 -5 13 -2 15 14 10 15 -5 22 -1 26 14 6 24 29 26 47 5z m-3610 -5
c0 -5 -5 -10 -11 -10 -5 0 -7 5 -4 10 3 6 8 10 11 10 2 0 4 -4 4 -10z m335 0
c-3 -5 -12 -10 -18 -10 -7 0 -6 4 3 10 19 12 23 12 15 0z m3635 0 c-20 -13
-33 -13 -25 0 3 6 14 10 23 10 15 0 15 -2 2 -10z m320 -17 c0 -17 3 -23 8 -16
10 16 52 5 52 -13 0 -8 -5 -14 -11 -14 -5 0 -7 -6 -3 -12 4 -7 4 -10 -1 -6 -4
4 -14 3 -22 -3 -10 -9 -13 -8 -13 0 0 7 -4 9 -10 6 -5 -3 -10 -1 -10 5 0 8 -6
8 -20 0 -14 -7 -20 -7 -20 0 0 5 6 10 14 10 8 0 16 7 20 15 3 8 0 15 -6 15 -7
0 -7 4 1 13 6 8 8 17 4 20 -3 4 -1 7 5 7 7 0 12 -12 12 -27z m388 10 c-2 -10
-10 -18 -18 -18 -8 0 -16 8 -18 18 -2 12 3 17 18 17 15 0 20 -5 18 -17z
m-4621 -25 c-3 -7 -5 -2 -5 12 0 14 2 19 5 13 2 -7 2 -19 0 -25z m511 -20 c-1
-51 -2 -52 -13 -24 -9 21 -9 35 -1 52 6 13 12 24 14 24 1 0 2 -24 0 -52z
m2802 27 c0 -20 -21 -30 -31 -14 -6 10 -9 11 -9 2 0 -7 -7 -13 -15 -13 -24 0
-17 18 13 33 30 15 42 13 42 -8z m975 15 c3 -5 1 -10 -4 -10 -6 0 -11 5 -11
10 0 6 2 10 4 10 3 0 8 -4 11 -10z m-4500 -10 c3 -5 1 -10 -4 -10 -6 0 -11 5
-11 10 0 6 2 10 4 10 3 0 8 -4 11 -10z m655 -9 c0 -16 -6 -19 -30 -16 -28 4
-30 2 -24 -20 4 -18 2 -25 -8 -25 -25 0 -28 11 -12 41 12 24 18 28 33 19 14
-7 20 -6 25 5 8 21 16 19 16 -4z m635 9 c3 -5 -1 -10 -9 -10 -8 0 -18 5 -21
10 -3 6 1 10 9 10 8 0 18 -4 21 -10z m1915 0 c0 -5 -2 -10 -4 -10 -3 0 -8 5
-11 10 -3 6 -1 10 4 10 6 0 11 -4 11 -10z m160 -21 c0 -14 8 -19 28 -20 19 -1
14 -4 -17 -10 -53 -10 -60 -6 -36 21 10 11 13 20 7 20 -7 0 -12 4 -12 10 0 5
7 7 15 4 8 -4 15 -15 15 -25z m470 15 c0 -8 -4 -12 -10 -9 -5 3 -10 10 -10 16
0 5 5 9 10 9 6 0 10 -7 10 -16z m-1955 -15 c0 -8 -10 -15 -22 -17 -25 -4 -30
7 -11 26 15 15 33 10 33 -9z m65 7 c0 -8 -5 -18 -11 -22 -14 -8 -33 11 -25 25
10 16 36 13 36 -3z m70 -2 c0 -8 -4 -12 -10 -9 -5 3 -10 10 -10 16 0 5 5 9 10
9 6 0 10 -7 10 -16z m524 -5 c-3 -5 -10 -7 -15 -3 -5 3 -7 10 -3 15 3 5 10 7
15 3 5 -3 7 -10 3 -15z m1501 11 c-3 -5 -10 -10 -16 -10 -5 0 -9 5 -9 10 0 6
7 10 16 10 8 0 12 -4 9 -10z m895 0 c0 -5 -4 -10 -10 -10 -5 0 -10 5 -10 10 0
6 5 10 10 10 6 0 10 -4 10 -10z m-5020 -4 c0 -11 -19 -15 -25 -6 -3 5 1 10 9
10 9 0 16 -2 16 -4z m890 -11 c0 -8 5 -15 11 -15 5 0 7 -4 4 -10 -4 -6 19 -10
62 -10 77 0 180 -23 203 -45 12 -13 12 -17 1 -27 -10 -9 -12 -9 -7 -1 4 7 -2
17 -15 23 -27 15 -36 6 -18 -17 12 -16 12 -17 -2 -6 -9 7 -19 9 -23 5 -4 -4
-6 0 -4 8 2 8 -4 14 -14 13 -10 0 -37 -1 -60 -2 -23 0 -38 -4 -34 -8 4 -4 23
-6 44 -6 32 1 34 0 12 -7 l-25 -8 25 -2 c14 -1 31 -2 39 -1 7 2 20 -1 30 -4
14 -6 14 -8 -4 -15 -16 -6 -11 -9 25 -17 41 -8 45 -11 45 -38 0 -27 -4 -30
-33 -33 -35 -4 -37 -6 -47 -64 -3 -22 -12 -39 -23 -42 -51 -15 -75 -14 -102 6
-26 19 -57 18 -45 -3 4 -5 -6 -9 -22 -9 -27 0 -28 1 -25 45 2 25 8 45 13 45
16 0 10 48 -7 54 -8 3 -13 10 -9 15 3 5 1 12 -5 16 -5 3 -10 15 -10 26 0 11 5
17 10 14 6 -3 10 -1 10 4 0 6 7 11 15 11 9 0 15 9 15 23 0 14 -3 18 -8 10 -11
-17 -36 1 -29 21 3 8 0 22 -8 30 -19 19 -19 36 0 36 8 0 15 -7 15 -15z m625 6
c3 -5 1 -12 -5 -16 -5 -3 -10 1 -10 9 0 18 6 21 15 7z m983 -3 c-2 -7 12 -15
32 -18 34 -6 33 -6 -15 -11 -60 -7 -65 -5 -58 21 6 21 45 29 41 8z m602 -22
c0 -40 -12 -51 -39 -37 -14 8 -21 8 -24 -2 -2 -6 -8 -8 -13 -4 -12 11 11 42
30 41 10 -1 16 6 16 17 0 11 7 19 15 19 10 0 15 -10 15 -34z m540 19 c0 -8 -4
-15 -10 -15 -5 0 -10 7 -10 15 0 8 5 15 10 15 6 0 10 -7 10 -15z m330 5 c0 -5
-2 -10 -4 -10 -3 0 -8 5 -11 10 -3 6 -1 10 4 10 6 0 11 -4 11 -10z m464 -5 c8
-8 19 -15 25 -15 6 0 11 -4 11 -8 0 -10 -47 -8 -72 3 -12 5 -16 2 -14 -12 2
-10 1 -12 -1 -5 -3 6 -9 12 -15 12 -11 0 32 39 44 40 4 0 13 -7 22 -15z
m-1134 -15 c0 -17 -7 -20 -45 -20 -25 0 -45 5 -45 10 0 6 18 10 40 10 22 0 40
5 40 10 0 6 2 10 5 10 3 0 5 -9 5 -20z m413 13 c-7 -2 -13 -11 -13 -19 0 -9
-5 -12 -10 -9 -13 8 6 35 24 34 7 0 6 -2 -1 -6z m-3085 -26 c2 -12 -3 -17 -17
-17 -15 0 -21 6 -21 21 0 25 33 22 38 -4z m132 -18 c-5 -9 -7 -18 -5 -21 2 -2
-5 -4 -15 -5 -11 -1 -20 2 -20 8 0 5 7 9 16 9 8 0 12 5 9 10 -4 6 -4 18 0 28
5 14 8 14 15 2 5 -8 5 -21 0 -31z m3294 29 c-6 -10 -4 -10 7 -2 8 5 20 9 27 8
6 -1 50 -2 97 -3 47 0 85 -5 85 -10 0 -6 -8 -10 -17 -9 -10 0 -60 -1 -111 -2
-85 -2 -94 -4 -112 -28 -11 -13 -20 -20 -20 -14 0 6 5 14 10 17 6 4 8 10 5 15
-3 5 -1 11 5 15 6 4 8 11 5 16 -4 5 1 9 10 9 10 0 13 -5 9 -12z m1108 -15 c-3
-16 -7 -22 -10 -15 -4 13 4 42 11 42 2 0 2 -12 -1 -27z m-5138 -5 c-4 -13 -12
-26 -18 -30 -6 -4 4 -8 21 -8 30 0 32 2 23 24 -9 24 -5 36 12 36 4 0 8 -9 8
-20 0 -13 5 -18 15 -14 8 4 15 2 15 -3 0 -6 21 -10 46 -11 45 0 70 -11 47 -19
-7 -2 -9 -11 -6 -20 5 -12 -2 -14 -37 -12 -28 2 -45 -1 -48 -9 -2 -8 -29 -12
-83 -12 -77 0 -79 1 -79 24 0 18 6 26 22 28 15 2 25 13 32 36 5 17 15 32 23
32 10 0 12 -6 7 -22z m156 14 c0 -13 -12 -22 -22 -16 -10 6 -1 24 13 24 5 0 9
-4 9 -8z m208 -5 c14 -17 -9 -47 -37 -47 -15 0 -21 6 -21 23 0 13 3 27 7 30
11 11 40 8 51 -6z m3159 7 c-3 -3 -12 -4 -19 -1 -8 3 -5 6 6 6 11 1 17 -2 13
-5z m1373 -13 c13 -26 13 -41 -2 -41 -19 0 -47 31 -41 46 7 20 31 17 43 -5z
m-5060 -1 c0 -5 -2 -10 -4 -10 -3 0 -8 5 -11 10 -3 6 -1 10 4 10 6 0 11 -4 11
-10z m70 2 c0 -4 -9 -8 -20 -9 -11 -1 -20 2 -20 8 0 5 9 9 20 9 11 0 20 -4 20
-8z m50 -2 c0 -5 -2 -10 -4 -10 -3 0 -8 5 -11 10 -3 6 -1 10 4 10 6 0 11 -4
11 -10z m147 4 c-3 -3 -12 -4 -19 -1 -8 3 -5 6 6 6 11 1 17 -2 13 -5z m2536
-1 c-7 -2 -21 -2 -30 0 -10 3 -4 5 12 5 17 0 24 -2 18 -5z m77 -13 c0 -11 -2
-20 -4 -20 -2 0 -6 9 -9 20 -3 11 -1 20 4 20 5 0 9 -9 9 -20z m577 -27 c-3
-10 -5 -2 -5 17 0 19 2 27 5 18 2 -10 2 -26 0 -35z m-2737 33 c0 -3 -4 -8 -10
-11 -5 -3 -10 -1 -10 4 0 6 5 11 10 11 6 0 10 -2 10 -4z m710 -28 c0 -11 8
-27 18 -34 16 -12 15 -13 -5 -9 -13 2 -22 0 -20 -5 1 -4 -2 -7 -8 -6 -5 0 -9
4 -7 9 1 4 -2 7 -7 7 -8 0 -6 22 5 58 6 19 24 4 24 -20z m644 11 c-3 -5 -10
-7 -15 -3 -5 3 -7 10 -3 15 3 5 10 7 15 3 5 -3 7 -10 3 -15z m168 -21 c-10
-22 -11 -21 -11 12 -1 26 2 31 11 22 8 -8 8 -17 0 -34z m1258 21 c0 -5 -4 -9
-8 -9 -5 0 -9 7 -9 15 0 8 4 12 9 9 4 -3 8 -9 8 -15z m1670 11 c0 -5 7 -10 15
-10 8 0 15 -4 15 -10 0 -15 -19 -12 -36 4 -16 17 -18 26 -4 26 6 0 10 -4 10
-10z m-1635 -20 c3 -11 9 -19 13 -18 15 4 50 -22 55 -42 4 -16 0 -20 -19 -20
-30 0 -30 -12 -2 -59 l22 -36 -22 19 c-12 11 -22 25 -22 33 0 8 -4 11 -10 8
-13 -8 -13 -3 0 31 10 24 9 26 -6 13 -14 -11 -18 -10 -27 6 -11 18 -12 17 -17
-15 -4 -31 -9 -35 -37 -37 -18 -2 -33 2 -33 8 0 5 5 7 10 4 6 -4 11 11 12 37
1 40 1 41 5 8 6 -49 23 -63 23 -18 0 27 5 37 19 41 14 3 17 11 14 31 -6 30 13
36 22 6z m365 -1 c0 -12 -29 -24 -37 -16 -3 4 -3 13 0 21 6 16 37 11 37 -5z
m133 4 c14 19 52 13 61 -9 4 -11 -4 -14 -33 -14 -22 0 -41 -4 -43 -10 -1 -5
-14 -1 -27 9 -14 11 -21 23 -16 30 5 9 12 8 26 -5 18 -16 20 -16 32 -1z
m-4233 -3 c0 -5 -4 -10 -10 -10 -5 0 -10 5 -10 10 0 6 5 10 10 10 6 0 10 -4
10 -10z m955 0 c3 -5 24 -10 46 -10 24 0 38 4 34 10 -3 6 -2 10 3 10 5 0 8
-15 6 -32 -1 -18 -3 -41 -3 -50 -1 -30 -21 -20 -21 10 0 21 -2 24 -10 12 -7
-11 -10 -12 -10 -2 0 9 -7 11 -19 7 -21 -6 -65 31 -55 47 7 11 21 10 29 -2z
m582 -22 c-3 -7 -5 -2 -5 12 0 14 2 19 5 13 2 -7 2 -19 0 -25z m1723 -3 c0
-13 5 -25 11 -27 6 -2 1 -14 -10 -27 -14 -16 -21 -19 -22 -10 0 8 -4 6 -9 -6
-8 -19 -9 -19 -9 3 -1 12 -7 21 -13 20 -18 -4 -11 54 8 69 22 16 44 5 44 -22z
m910 -9 c0 -12 10 -16 39 -16 23 0 44 -6 52 -16 16 -19 74 -50 64 -34 -4 6
-18 15 -31 20 -24 9 -33 30 -14 30 6 0 26 -7 45 -14 22 -10 35 -11 35 -4 0 6
9 8 20 5 11 -3 20 0 21 6 0 8 2 8 6 0 2 -7 9 -13 14 -13 6 0 8 4 5 9 -6 9 56
-21 77 -37 7 -5 23 -13 37 -17 24 -8 24 -7 -5 17 -16 14 -39 30 -50 36 -16 9
-1 11 70 11 72 0 95 -4 122 -20 18 -11 33 -18 33 -14 0 3 10 -3 22 -15 12 -11
29 -21 37 -22 43 -5 -216 -15 -370 -14 -127 1 -170 -2 -155 -9 18 -9 21 -20
21 -80 -1 -125 -8 -230 -18 -252 -10 -22 -11 -21 -27 15 -10 22 -25 42 -33 45
-13 5 -15 -2 -13 -38 2 -29 -1 -46 -10 -49 -9 -3 -11 1 -8 12 5 14 4 14 -4 2
-13 -17 -5 -33 12 -27 7 3 13 -1 13 -8 0 -10 -5 -11 -18 -5 -12 7 -19 6 -22
-3 -2 -6 -4 3 -5 22 -1 43 -12 54 -12 12 0 -18 -4 -30 -9 -27 -5 3 -12 -1 -15
-10 -3 -8 -10 -12 -16 -9 -5 3 -10 2 -10 -4 0 -5 8 -12 18 -14 13 -4 11 -5 -5
-6 -15 -1 -23 5 -24 17 -1 16 -2 16 -6 0 -6 -23 -23 -23 -24 0 -1 16 -2 16 -6
0 -6 -25 -63 -25 -63 0 0 10 -5 23 -12 30 -8 8 -8 12 -1 12 14 0 24 26 17 43
-3 8 -11 14 -19 14 -12 0 -15 -14 -15 -60 0 -33 -3 -58 -6 -55 -3 4 -5 99 -5
213 1 150 5 210 14 218 6 7 30 18 52 26 51 18 86 41 79 52 -3 5 3 6 12 2 11
-4 15 -3 10 5 -4 7 4 9 24 7 16 -2 29 -1 29 3 -1 4 -1 17 0 30 1 21 3 22 16 8
8 -8 15 -22 15 -30z m-4013 3 c1 -19 1 -20 -4 -4 -3 11 -10 24 -17 28 -7 6 -6
7 4 4 8 -2 16 -14 17 -28z m78 22 c10 -17 -12 -21 -25 -6 -10 12 -10 15 3 15
9 0 18 -4 22 -9z m4605 -11 c19 0 42 -5 50 -10 11 -7 -3 -10 -47 -10 -61 0
-81 9 -67 31 4 8 9 8 17 0 6 -6 27 -11 47 -11z m-1813 -12 c-3 -8 -6 -5 -6 6
-1 11 2 17 5 13 3 -3 4 -12 1 -19z m1531 5 c2 -8 -6 -13 -22 -13 -25 0 -33 10
-19 24 10 10 36 3 41 -11z m-3650 -21 c14 -21 13 -22 -9 -19 -16 3 -25 12 -27
27 -4 27 15 23 36 -8z m872 24 c0 -2 -7 -7 -16 -10 -8 -3 -12 -2 -9 4 6 10 25
14 25 6z m104 -11 c-4 -8 -10 -15 -14 -15 -4 0 -10 7 -14 15 -4 10 1 15 14 15
13 0 18 -5 14 -15z m945 -27 c1 -5 -2 -7 -6 -7 -20 3 -34 -2 -28 -11 3 -5 1
-10 -4 -10 -6 0 -11 5 -11 10 0 6 -3 9 -7 9 -32 -5 -63 3 -63 16 0 14 36 21
77 16 6 -1 15 4 19 11 5 8 10 6 15 -8 4 -10 8 -22 8 -26z m71 21 c0 -6 -4 -7
-10 -4 -5 3 -10 11 -10 16 0 6 5 7 10 4 6 -3 10 -11 10 -16z m437 -10 c-4 -15
0 -19 19 -19 13 0 24 -4 24 -10 0 -5 -16 -9 -35 -7 -23 1 -34 6 -31 14 3 7 1
15 -4 18 -5 3 -7 12 -4 20 8 21 37 6 31 -16z m2167 -1 c4 -17 2 -28 -4 -28 -5
0 -10 14 -10 32 0 36 4 35 14 -4z m-4374 2 c0 -5 -5 -10 -11 -10 -5 0 -7 5 -4
10 3 6 8 10 11 10 2 0 4 -4 4 -10z m1340 0 c-13 -8 -12 -10 5 -11 17 -1 17 -2
3 -6 -10 -2 -18 -11 -18 -19 0 -11 13 -13 69 -8 l69 7 0 -52 1 -51 -55 0 c-51
0 -54 1 -54 25 0 24 -15 32 -35 17 -5 -4 -10 -16 -10 -27 0 -11 -6 -19 -12
-17 -7 1 -13 -2 -13 -8 0 -5 -9 -10 -19 -10 -11 0 -22 -6 -24 -12 -4 -9 -8
-10 -14 -3 -10 14 -32 13 -41 0 -10 -15 -54 -17 -49 -2 3 7 11 11 18 9 8 -1 5
5 -6 13 -11 9 -19 23 -17 31 2 9 -3 23 -10 32 -10 12 -10 14 0 8 7 -4 12 -1
12 8 0 9 9 17 23 18 12 0 33 2 47 3 14 2 40 3 58 4 29 1 32 4 32 31 0 26 4 30
28 30 21 0 24 -2 12 -10z m557 -52 c-2 -13 -4 -5 -4 17 -1 22 1 32 4 23 2 -10
2 -28 0 -40z m50 20 c-3 -7 -5 -2 -5 12 0 14 2 19 5 13 2 -7 2 -19 0 -25z
m440 -20 c-2 -13 -4 -5 -4 17 -1 22 1 32 4 23 2 -10 2 -28 0 -40z m1296 37
c26 -2 52 -4 58 -4 5 -1 8 -4 6 -8 -3 -5 6 -9 20 -10 l26 -1 -29 19 -29 19 36
0 c24 0 39 -5 43 -15 6 -17 26 -20 26 -4 0 5 -6 7 -12 3 -10 -5 -10 -4 -1 6 9
10 15 10 27 -3 18 -17 21 -32 6 -22 -13 8 -54 -15 -44 -25 5 -4 18 -10 29 -12
11 -3 -22 -5 -73 -6 -81 -2 -97 1 -123 19 -16 11 -27 24 -24 29 3 5 1 12 -5
15 -6 4 -9 3 -8 -2 5 -14 -16 -11 -37 4 -18 14 -17 14 20 8 22 -3 61 -8 88
-10z m213 -10 c-4 -22 -2 -24 27 -18 24 4 29 3 21 -6 -11 -12 -110 -18 -121
-7 -4 3 5 6 18 6 45 0 67 28 32 41 -16 7 -15 8 5 8 18 1 22 -3 18 -24z m41 19
c-3 -3 -12 -4 -19 -1 -8 3 -5 6 6 6 11 1 17 -2 13 -5z m78 -4 c-3 -5 1 -10 9
-10 9 0 16 -4 16 -10 0 -5 -4 -10 -9 -10 -13 0 -32 26 -24 33 10 10 15 8 8 -3z
m-5061 -6 c9 -3 16 -17 16 -31 0 -13 -4 -22 -9 -18 -5 3 -13 -4 -16 -15 -5
-16 -10 -18 -19 -11 -7 6 -17 7 -21 3 -5 -4 -5 -2 -1 5 3 6 2 14 -3 18 -17 10
8 54 31 55 3 0 13 -3 22 -6z m646 -8 c0 -8 3 -21 6 -30 5 -12 0 -16 -20 -16
-14 0 -26 5 -26 11 0 5 -4 7 -10 4 -5 -3 -10 3 -10 14 0 10 6 22 13 24 24 10
47 7 47 -7z m1270 -44 l65 -42 -165 -1 c-91 -1 -176 -1 -190 0 -17 2 -32 -6
-48 -26 -12 -15 -20 -20 -16 -11 3 9 2 23 -2 29 -5 9 -10 5 -16 -10 -9 -27
-35 -22 -30 5 5 24 2 23 44 26 20 1 36 4 35 7 -1 4 4 16 11 28 11 20 10 22
-16 26 -28 4 -27 4 115 10 34 2 65 6 68 9 13 13 85 -12 145 -50z m870 43 c0
-8 -7 -15 -15 -15 -8 0 -15 7 -15 15 0 8 7 15 15 15 8 0 15 -7 15 -15z m-763
-15 c-6 -22 18 -29 26 -7 3 7 6 5 6 -5 1 -14 -7 -18 -30 -18 -16 0 -28 4 -25
9 8 12 -13 18 -42 13 -18 -4 -20 -7 -10 -13 10 -7 9 -9 -4 -9 -13 0 -18 8 -18
25 0 23 3 25 51 25 46 0 51 -2 46 -20z m135 -5 c3 -14 1 -25 -4 -25 -6 0 -8
-7 -4 -15 3 -8 1 -15 -4 -15 -6 0 -10 18 -10 40 0 44 15 54 22 15z m1253 -11
c-5 -35 -24 -64 -43 -64 -15 0 -38 34 -38 55 1 11 -6 23 -14 27 -8 5 0 5 18 2
20 -3 32 -1 32 5 0 6 11 11 25 11 22 0 24 -3 20 -36z m2138 29 c-7 -2 -21 -2
-30 0 -10 3 -4 5 12 5 17 0 24 -2 18 -5z m-1762 -20 c13 -16 12 -17 -3 -4 -17
13 -22 21 -14 21 2 0 10 -8 17 -17z m79 2 c0 -8 -7 -15 -15 -15 -16 0 -20 12
-8 23 11 12 23 8 23 -8z m-3183 -22 c1 -19 -1 -22 -8 -12 -11 17 -12 39 -1 39
4 0 8 -12 9 -27z m2813 12 c0 -8 -2 -15 -4 -15 -2 0 -6 7 -10 15 -3 8 -1 15 4
15 6 0 10 -7 10 -15z m30 -1 c0 -8 -4 -12 -10 -9 -5 3 -10 10 -10 16 0 5 5 9
10 9 6 0 10 -7 10 -16z m-3090 -4 c0 -5 -2 -10 -4 -10 -3 0 -8 5 -11 10 -3 6
-1 10 4 10 6 0 11 -4 11 -10z m62 -74 c4 4 15 1 24 -7 15 -12 15 -14 -7 -20
-13 -3 -27 -1 -31 5 -5 7 -8 7 -8 -1 0 -7 -9 -13 -20 -13 -20 0 -27 14 -11 24
5 3 12 27 17 53 l7 48 11 -48 c6 -27 15 -45 18 -41z m1607 42 c2 -39 13 -57
34 -58 5 0 5 5 2 10 -3 6 -1 10 4 10 6 0 11 -4 11 -10 0 -5 7 -10 16 -10 8 0
12 -5 8 -11 -3 -6 -15 -8 -26 -6 -41 11 -91 -32 -55 -46 7 -3 5 -6 -5 -6 -11
-1 -18 6 -18 17 0 10 -5 23 -12 30 -10 10 -8 15 9 27 17 12 20 23 17 55 -2 22
0 40 4 40 4 0 9 -19 11 -42z m2926 34 c-19 -4 -19 -5 -2 -11 10 -4 -8 -7 -40
-8 l-58 -1 45 13 c25 7 52 12 60 13 8 0 6 -3 -5 -6z m40 -1 c-3 -5 7 -12 22
-14 26 -4 26 -4 -4 -6 -23 -1 -33 3 -33 14 0 8 5 15 11 15 5 0 8 -4 4 -9z
m-5205 -11 c0 -5 -15 -11 -32 -11 l-33 -2 35 -7 c30 -6 31 -8 9 -9 -15 0 -39
5 -54 13 l-27 14 23 5 c45 8 79 7 79 -3z m50 0 c0 -5 -4 -10 -10 -10 -5 0 -10
5 -10 10 0 6 5 10 10 10 6 0 10 -4 10 -10z m1100 -5 c0 -12 -15 -15 -79 -15
-58 0 -82 4 -91 15 -11 13 -1 15 79 15 74 0 91 -3 91 -15z m1849 -27 c-1 -24
-4 -33 -6 -20 -2 12 -11 22 -19 22 -8 0 -14 9 -14 20 0 13 7 20 20 20 17 0 20
-6 19 -42z m-3132 26 c-3 -3 -12 -4 -19 -1 -8 3 -5 6 6 6 11 1 17 -2 13 -5z
m346 -1 c-7 -2 -21 -2 -30 0 -10 3 -4 5 12 5 17 0 24 -2 18 -5z m3037 -34 c0
-12 -37 -12 -44 0 -3 4 -3 11 0 14 8 7 44 -4 44 -14z m-2506 -21 c-3 -4 4 -8
15 -8 12 0 21 -5 21 -11 0 -14 -46 -4 -65 14 -10 9 -9 14 4 24 16 12 35 -2 25
-19z m226 16 c0 -17 -14 -18 -28 -1 -8 10 -6 13 9 14 10 1 19 -5 19 -13z m168
3 c6 -5 12 -25 12 -43 l0 -34 -52 -1 c-29 0 -63 -2 -74 -3 -19 -2 -20 0 -11
16 9 14 9 23 -1 38 -6 11 -12 24 -12 30 0 13 120 10 138 -3z m4779 -9 c-3 -8
-6 -5 -6 6 -1 11 2 17 5 13 3 -3 4 -12 1 -19z m-5627 -3 c11 7 33 -22 25 -35
-7 -12 -42 -13 -49 -2 -3 5 -2 19 1 33 4 13 8 18 11 11 2 -7 7 -10 12 -7z
m190 1 c0 -3 -4 -8 -10 -11 -5 -3 -10 -1 -10 4 0 6 5 11 10 11 6 0 10 -2 10
-4z m360 -6 c0 -5 -4 -10 -10 -10 -5 0 -10 5 -10 10 0 6 5 10 10 10 6 0 10 -4
10 -10z m1259 -47 l-2 -53 -59 0 c-33 0 -57 4 -54 9 11 18 -49 31 -139 31 -95
0 -95 0 -95 25 0 16 -6 26 -17 27 -16 2 272 13 340 13 27 0 28 -1 26 -52z
m986 47 c5 -8 11 -7 20 0 10 8 19 8 34 0 26 -13 26 -14 -1 -42 l-23 -23 -23
25 c-13 14 -21 19 -17 13 7 -15 4 -16 -19 -7 -19 7 -21 30 -3 37 19 8 25 8 32
-3z m265 0 c0 -5 -4 -10 -10 -10 -5 0 -10 5 -10 10 0 6 5 10 10 10 6 0 10 -4
10 -10z m-1774 -27 c2 -20 -3 -23 -33 -23 -19 0 -32 3 -30 8 2 4 6 14 9 22 3
8 16 15 29 15 18 0 24 -6 25 -22z m2281 -25 c-2 -13 -4 -5 -4 17 -1 22 1 32 4
23 2 -10 2 -28 0 -40z m-1711 15 c1 -15 -4 -21 -17 -20 -13 1 -19 9 -19 25 0
31 35 26 36 -5z m27 -3 c-7 -28 -13 -25 -13 6 0 14 4 23 9 20 5 -3 7 -15 4
-26z m-1823 10 c0 -5 -5 -10 -11 -10 -5 0 -7 5 -4 10 3 6 8 10 11 10 2 0 4 -4
4 -10z m40 0 c0 -5 -4 -10 -10 -10 -5 0 -10 5 -10 10 0 6 5 10 10 10 6 0 10
-4 10 -10z m867 -42 c-2 -13 -4 -5 -4 17 -1 22 1 32 4 23 2 -10 2 -28 0 -40z
m1483 42 c-13 -9 -13 -10 0 -10 12 0 12 -2 2 -9 -15 -9 -15 -20 0 -38 8 -10 1
-13 -31 -13 l-41 0 0 40 0 40 43 0 c31 0 38 -3 27 -10z m47 4 c-3 -3 -12 -4
-19 -1 -8 3 -5 6 6 6 11 1 17 -2 13 -5z m2820 -16 c-3 -8 -6 -5 -6 6 -1 11 2
17 5 13 3 -3 4 -12 1 -19z m-5627 -3 c0 -8 -4 -15 -9 -15 -5 0 -16 -2 -23 -5
-9 -4 -14 2 -14 15 0 14 7 20 23 20 14 0 23 -6 23 -15z m2507 -7 c-3 -8 -6 -5
-6 6 -1 11 2 17 5 13 3 -3 4 -12 1 -19z m125 4 c8 -29 -9 -62 -32 -62 -11 0
-20 5 -20 11 0 5 4 8 9 5 4 -3 6 6 3 19 -2 14 -11 25 -19 25 -8 0 -11 5 -8 10
11 18 62 12 67 -8z m25 -19 c-3 -10 -5 -4 -5 12 0 17 2 24 5 18 2 -7 2 -21 0
-30z m708 1 c1 -20 -3 -24 -27 -22 -33 3 -37 13 -8 21 11 3 20 13 20 23 0 27
15 6 15 -22z m-2115 16 c0 -5 -4 -10 -10 -10 -5 0 -10 5 -10 10 0 6 5 10 10
10 6 0 10 -4 10 -10z m1073 0 c7 0 6 -4 -3 -10 -12 -8 -12 -10 5 -10 17 0 17
-2 5 -10 -23 -15 -47 -12 -54 6 -8 21 3 37 21 30 8 -3 20 -6 26 -6z m92 0 c3
-5 1 -10 -4 -10 -6 0 -11 5 -11 10 0 6 2 10 4 10 3 0 8 -4 11 -10z m552 -12
c-3 -8 -6 -5 -6 6 -1 11 2 17 5 13 3 -3 4 -12 1 -19z m53 -32 c-7 -7 -10 1 -9
25 0 32 1 33 10 10 6 -16 6 -28 -1 -35z m385 44 c3 -5 -1 -10 -9 -10 -9 0 -16
5 -16 10 0 6 4 10 9 10 6 0 13 -4 16 -10z m-2208 -32 c-3 -7 -5 -2 -5 12 0 14
2 19 5 13 2 -7 2 -19 0 -25z m1801 -4 c-3 -14 -5 -12 -10 9 -3 19 -2 25 4 19
6 -6 8 -18 6 -28z m275 14 c3 -10 1 -18 -4 -18 -5 0 -9 6 -9 13 0 9 -2 9 -8
-1 -12 -19 -52 -24 -52 -6 0 8 -5 14 -11 14 -5 0 -7 4 -4 10 3 5 23 9 45 8 28
-1 40 -6 43 -20z m491 0 c-4 -7 2 -8 17 -3 21 7 22 6 10 -9 -15 -18 -69 -20
-136 -7 -32 7 -34 9 -12 10 15 0 27 7 28 14 0 10 2 10 6 0 5 -14 74 -18 72 -5
-3 16 2 23 11 17 6 -4 7 -11 4 -17z m-3907 -10 c-3 -8 -6 -5 -6 6 -1 11 2 17
5 13 3 -3 4 -12 1 -19z m1143 18 c0 -3 -4 -8 -10 -11 -5 -3 -10 -1 -10 4 0 6
5 11 10 11 6 0 10 -2 10 -4z m1490 -4 c0 -4 -5 -20 -12 -34 l-12 -25 -17 21
c-16 19 -16 21 0 33 18 14 41 17 41 5z m77 -8 c-3 -3 -12 -4 -19 -1 -8 3 -5 6
6 6 11 1 17 -2 13 -5z m953 -15 c13 -23 4 -99 -11 -99 -12 0 -11 -41 1 -60 6
-10 10 -11 10 -2 0 6 9 12 20 12 11 0 20 -4 20 -10 0 -5 -7 -10 -15 -10 -8 0
-15 -8 -15 -18 0 -24 -20 -49 -47 -56 -18 -6 -24 0 -39 34 -13 30 -24 40 -40
40 -13 0 -26 5 -29 10 -4 6 15 10 49 10 31 0 57 5 57 10 1 6 2 16 3 23 1 6
-11 26 -26 42 -28 31 -35 45 -20 45 5 0 14 11 20 25 14 31 47 33 62 4z m-2263
5 c-3 -3 -12 -4 -19 -1 -8 3 -5 6 6 6 11 1 17 -2 13 -5z m1090 -19 c-19 -18
-28 -19 -24 -2 2 12 28 28 36 21 2 -2 -4 -10 -12 -19z m1078 15 c8 -13 -5 -13
-25 0 -13 8 -13 10 2 10 9 0 20 -4 23 -10z m-322 -7 c-7 -2 -19 -2 -25 0 -7 3
-2 5 12 5 14 0 19 -2 13 -5z m-543 -13 c0 -5 -11 -12 -25 -16 -14 -3 -23 -10
-20 -14 5 -8 -40 -60 -52 -60 -5 0 -9 9 -10 20 -1 11 2 18 6 16 4 -3 23 10 41
29 33 34 60 45 60 25z m3090 -4 c0 -3 -4 -8 -10 -11 -5 -3 -10 -1 -10 4 0 6 5
11 10 11 6 0 10 -2 10 -4z m-5352 -65 l-1 -36 -4 33 c-2 18 -8 30 -12 28 -4
-3 -13 -1 -20 3 -9 6 -4 9 13 9 24 0 26 -4 24 -37z m2142 23 c0 -8 -5 -12 -10
-9 -6 4 -8 11 -5 16 9 14 15 11 15 -7z m-2486 -3 c3 -5 -1 -14 -8 -20 -16 -13
-32 2 -21 19 8 12 22 13 29 1z m3306 -7 c0 -2 -9 -4 -21 -4 -11 0 -18 4 -14
10 5 8 35 3 35 -6z m170 -5 c-7 -11 -14 -18 -17 -15 -3 3 0 12 7 21 18 21 23
19 10 -6z m-397 4 c-13 -2 -24 -12 -24 -21 -1 -16 -2 -16 -6 0 -2 9 -14 19
-26 21 -12 2 1 4 28 4 28 0 40 -2 28 -4z m85 0 c-10 -2 -26 -2 -35 0 -10 3 -2
5 17 5 19 0 27 -2 18 -5z m47 -28 c0 -19 -3 -35 -6 -35 -4 0 -9 16 -11 35 -2
20 0 35 7 35 5 0 10 -16 10 -35z m42 29 c-3 -3 -12 -4 -19 -1 -8 3 -5 6 6 6
11 1 17 -2 13 -5z m167 -7 c-3 -8 -11 -14 -18 -14 -7 0 -13 6 -13 14 0 7 8 13
18 13 11 0 16 -5 13 -13z m-3267 -54 c-3 -10 -5 -4 -5 12 0 17 2 24 5 18 2 -7
2 -21 0 -30z m2603 7 c0 -16 -4 -30 -9 -30 -5 0 -11 14 -13 30 -3 20 0 30 9
30 8 0 13 -12 13 -30z m40 13 c0 -8 -5 -13 -12 -11 -18 6 -21 25 -3 25 8 0 15
-7 15 -14z m-522 -10 c-15 -2 -42 -2 -60 0 -18 2 -6 4 27 4 33 0 48 -2 33 -4z
m319 1 c-3 -3 -12 -4 -19 -1 -8 3 -5 6 6 6 11 1 17 -2 13 -5z m-2052 -14 c3
-6 -1 -13 -10 -16 -19 -8 -30 0 -20 15 8 14 22 14 30 1z m328 -7 c-7 -2 -21
-2 -30 0 -10 3 -4 5 12 5 17 0 24 -2 18 -5z m1987 -7 c0 -3 -4 -8 -10 -11 -5
-3 -10 -1 -10 4 0 6 5 11 10 11 6 0 10 -2 10 -4z m355 -91 c0 -47 -3 -85 -7
-85 -5 0 -8 41 -8 92 0 50 3 88 7 84 4 -4 7 -45 8 -91z m-698 63 c-3 -8 -6 -5
-6 6 -1 11 2 17 5 13 3 -3 4 -12 1 -19z m233 -8 c0 -5 -5 -10 -11 -10 -5 0 -7
5 -4 10 3 6 8 10 11 10 2 0 4 -4 4 -10z m627 4 c-3 -3 -12 -4 -19 -1 -8 3 -5
6 6 6 11 1 17 -2 13 -5z m-3219 -35 c2 -19 1 -21 -7 -9 -9 13 -11 13 -11 1 0
-10 -3 -12 -10 -5 -13 13 -2 46 14 41 6 -2 12 -14 14 -28z m482 21 c0 -5 -4
-10 -9 -10 -6 0 -13 5 -16 10 -3 6 1 10 9 10 9 0 16 -4 16 -10z m4936 1 c-4
-5 0 -12 6 -14 7 -3 3 -6 -10 -6 -13 -1 -20 3 -17 9 3 6 -1 10 -10 10 -10 0
-13 -5 -9 -12 5 -8 0 -9 -17 -5 -13 4 -49 7 -79 8 l-55 2 45 7 c69 11 152 11
146 1z m-5383 -26 c-8 -22 -22 -18 -16 5 3 11 9 17 14 15 4 -3 6 -12 2 -20z
m2952 7 c-3 -3 -11 0 -18 7 -9 10 -8 11 6 5 10 -3 15 -9 12 -12z m2470 8 c3
-5 1 -10 -4 -10 -6 0 -11 5 -11 10 0 6 2 10 4 10 3 0 8 -4 11 -10z m-3030 -29
c-6 -5 -25 10 -25 20 0 5 6 4 14 -3 8 -7 12 -15 11 -17z m90 7 c5 -5 -5 -6
-24 -2 -27 6 -32 4 -26 -6 5 -9 4 -11 -4 -6 -6 4 -9 11 -6 16 3 4 -1 11 -7 13
-7 3 3 3 22 0 19 -3 39 -10 45 -15z m-185 2 c-8 -5 -19 -10 -25 -10 -5 0 -3 5
5 10 8 5 20 10 25 10 6 0 3 -5 -5 -10z m259 1 c21 -13 8 -34 -21 -35 -15 -1
-24 2 -22 6 2 3 0 9 -6 13 -6 4 -8 11 -5 16 8 11 36 11 54 0z m-1051 -8 c-10
-2 -28 -2 -40 0 -13 2 -5 4 17 4 22 1 32 -1 23 -4z m-1478 -24 c0 -5 -4 -9
-10 -9 -5 0 -10 7 -10 16 0 8 5 12 10 9 6 -3 10 -10 10 -16z m120 17 c0 -2 -9
-6 -20 -9 -11 -3 -20 -1 -20 4 0 5 9 9 20 9 11 0 20 -2 20 -4z m1445 -5 c10
-17 -12 -21 -25 -6 -10 12 -10 15 3 15 9 0 18 -4 22 -9z m4305 -17 c0 -8 -4
-14 -10 -14 -5 0 -10 9 -10 21 0 11 5 17 10 14 6 -3 10 -13 10 -21z m-5900 6
c0 -5 -4 -10 -9 -10 -6 0 -13 5 -16 10 -3 6 1 10 9 10 9 0 16 -4 16 -10z
m1587 -82 c-2 -13 -4 -3 -4 22 0 25 2 35 4 23 2 -13 2 -33 0 -45z m-1434 45
c-7 -2 -21 -2 -30 0 -10 3 -4 5 12 5 17 0 24 -2 18 -5z m3104 1 c-3 -3 -12 -4
-19 -1 -8 3 -5 6 6 6 11 1 17 -2 13 -5z m-680 -10 c-3 -3 -12 -4 -19 -1 -8 3
-5 6 6 6 11 1 17 -2 13 -5z m1593 2 c0 -11 -19 -15 -25 -6 -3 5 1 10 9 10 9 0
16 -2 16 -4z m1317 -48 c-2 -13 -4 -5 -4 17 -1 22 1 32 4 23 2 -10 2 -28 0
-40z m-3227 8 c-5 -4 -204 -14 -297 -15 -35 -1 -43 -4 -43 -20 0 -23 9 -24
400 -47 157 -9 292 -21 300 -26 10 -6 -8 -7 -50 -4 -36 3 -191 13 -345 21
-154 9 -290 21 -302 26 -22 8 -32 47 -17 61 3 4 85 7 182 8 97 0 174 -1 172
-4z m3645 -69 c8 -30 -13 -87 -32 -87 -9 0 -13 23 -13 81 l0 82 19 -25 c11
-13 23 -36 26 -51z m-5550 43 c0 -20 -39 -19 -43 1 -2 11 4 16 20 15 13 -1 23
-7 23 -16z m665 16 c0 -2 -13 -6 -29 -8 -17 -2 -28 -1 -25 4 5 8 54 12 54 4z
m780 -6 c-20 -13 -33 -13 -25 0 3 6 14 10 23 10 15 0 15 -2 2 -10z m-1376 -15
c-4 -8 -8 -15 -10 -15 -2 0 -4 7 -4 15 0 8 4 15 10 15 5 0 7 -7 4 -15z m209
-2 c-7 -2 -21 -2 -30 0 -10 3 -4 5 12 5 17 0 24 -2 18 -5z m1010 -10 c-7 -2
-21 -2 -30 0 -10 3 -4 5 12 5 17 0 24 -2 18 -5z m1374 -45 c-2 -13 -4 -5 -4
17 -1 22 1 32 4 23 2 -10 2 -28 0 -40z m-1274 35 c-13 -2 -33 -2 -45 0 -13 2
-3 4 22 4 25 0 35 -2 23 -4z m1040 0 c-7 -2 -19 -2 -25 0 -7 3 -2 5 12 5 14 0
19 -2 13 -5z m172 -2 c4 -7 -19 -11 -69 -11 -42 0 -76 -4 -76 -9 0 -32 14 -41
65 -41 30 0 57 -4 60 -10 7 -11 -31 -13 -88 -4 -41 7 -62 33 -52 63 4 15 18
18 79 20 43 1 77 -2 81 -8z m204 5 c-7 -8 -108 -10 -115 -3 -4 4 21 7 56 7 35
0 61 -2 59 -4z m40 -10 c7 -8 10 -27 8 -43 -2 -17 2 -33 12 -41 14 -11 10 -13
-24 -8 -22 3 -66 6 -97 6 -35 0 -58 4 -58 11 0 7 24 8 75 4 l75 -7 0 25 c0 14
-4 29 -10 32 -12 8 -13 35 -1 35 5 0 14 -6 20 -14z m-510 0 c-2 -2 -15 -9 -29
-16 -23 -12 -24 -12 -11 3 7 10 20 17 29 17 8 0 13 -2 11 -4z m-792 -12 c-3
-3 -12 -4 -19 -1 -8 3 -5 6 6 6 11 1 17 -2 13 -5z m-1676 -20 c10 -13 10 -17
-2 -25 -16 -10 -43 -12 -52 -3 -6 6 23 44 34 44 4 0 12 -7 20 -16z m466 -21
c-3 -3 -11 -2 -17 2 -9 6 -9 10 1 16 14 8 27 -7 16 -18z m4513 7 c11 -7 5 -10
-23 -10 -23 0 -36 4 -32 10 8 13 35 13 55 0z m-4410 -16 c0 -8 -4 -12 -10 -9
-5 3 -10 10 -10 16 0 5 5 9 10 9 6 0 10 -7 10 -16z m2010 -2 c0 -5 -28 -7 -62
-4 -90 5 -95 10 -10 11 39 1 72 -3 72 -7z m845 -2 c-3 -5 -11 -10 -16 -10 -6
0 -7 5 -4 10 3 6 11 10 16 10 6 0 7 -4 4 -10z m2025 -5 c10 -12 9 -15 -8 -15
-11 0 -22 -6 -25 -12 -2 -7 -4 -1 -4 15 -1 30 17 36 37 12z m-1363 -1 c-3 -3
-12 -4 -19 -1 -8 3 -5 6 6 6 11 1 17 -2 13 -5z m1233 -4 c0 -5 -2 -10 -4 -10
-3 0 -8 5 -11 10 -3 6 -1 10 4 10 6 0 11 -4 11 -10z m253 3 c-7 -2 -19 -2 -25
0 -7 3 -2 5 12 5 14 0 19 -2 13 -5z m-2358 -23 c42 -11 -85 -11 -145 -1 -40 8
-36 9 35 9 44 0 94 -4 110 -8z m-1302 -7 c-7 -2 -19 -2 -25 0 -7 3 -2 5 12 5
14 0 19 -2 13 -5z m1467 -9 c2 -3 -19 -4 -48 -2 -28 2 -52 7 -52 11 0 9 90 0
100 -9z m2260 2 c8 -2 -11 -4 -43 -5 -32 0 -56 3 -53 7 4 7 57 6 96 -2z"/>
<path d="M4003 1913 c15 -2 37 -2 50 0 12 2 0 4 -28 4 -27 0 -38 -2 -22 -4z"/>
<path d="M4268 1040 c-1 -33 0 -60 5 -60 4 0 7 27 7 60 0 77 -7 77 -12 0z"/>
<path d="M4978 1743 c6 -2 10 -8 7 -13 -3 -4 5 -6 17 -2 21 5 21 6 2 13 -10 4
-23 8 -29 8 -5 -1 -4 -3 3 -6z"/>
<path d="M5055 1710 c3 -5 8 -10 11 -10 2 0 4 5 4 10 0 6 -5 10 -11 10 -5 0
-7 -4 -4 -10z"/>
<path d="M5021 994 c0 -11 3 -14 6 -6 3 7 2 16 -1 19 -3 4 -6 -2 -5 -13z"/>
<path d="M5315 1620 c-3 -5 -1 -10 4 -10 6 0 11 5 11 10 0 6 -2 10 -4 10 -3 0
-8 -4 -11 -10z"/>
<path d="M5660 1311 c0 -6 -5 -11 -11 -11 -11 0 -44 -29 -38 -34 21 -18 47
-21 69 -10 20 11 22 14 8 19 -9 4 -14 13 -12 20 3 7 1 16 -5 20 -6 3 -11 1
-11 -4z"/>
<path d="M5790 1280 c0 -5 7 -10 16 -10 8 0 12 5 9 10 -3 6 -10 10 -16 10 -5
0 -9 -4 -9 -10z"/>
<path d="M2896 758 c-18 -52 -16 -60 8 -35 8 7 10 20 6 32 -7 18 -8 18 -14 3z"/>
<path d="M4386 732 c-3 -5 1 -9 9 -9 8 0 12 4 9 9 -3 4 -7 8 -9 8 -2 0 -6 -4
-9 -8z"/>
<path d="M4422 660 c0 -19 2 -27 5 -17 2 9 2 25 0 35 -3 9 -5 1 -5 -18z"/>
<path d="M4190 466 c0 -2 7 -7 16 -10 8 -3 12 -2 9 4 -6 10 -25 14 -25 6z"/>
<path d="M4194 413 c0 -20 6 -38 12 -40 15 -5 25 35 12 44 -7 3 -8 1 -4 -5 4
-7 2 -12 -5 -12 -6 0 -9 8 -6 20 3 11 2 22 -3 25 -4 2 -7 -12 -6 -32z"/>
<path d="M4401 384 c0 -11 3 -14 6 -6 3 7 2 16 -1 19 -3 4 -6 -2 -5 -13z"/>
<path d="M367 1903 c-12 -15 -13 -20 -2 -30 10 -9 14 -6 17 18 5 34 6 34 -15
12z"/>
<path d="M1468 1433 c-24 -6 -23 -30 2 -43 18 -10 20 -8 20 20 0 16 -1 29 -2
29 -2 -1 -11 -3 -20 -6z"/>
<path d="M3396 1302 c-2 -4 -1 -14 5 -22 7 -12 9 -10 9 8 0 23 -5 28 -14 14z"/>
<path d="M1245 1290 c3 -5 8 -10 11 -10 2 0 4 5 4 10 0 6 -5 10 -11 10 -5 0
-7 -4 -4 -10z"/>
<path d="M655 1140 c-4 -6 -16 -8 -27 -4 -14 4 -18 2 -14 -5 4 -7 -1 -11 -12
-11 -24 0 -37 -39 -16 -47 21 -8 18 -53 -3 -54 -11 0 -6 -5 12 -11 21 -8 30
-8 33 1 2 6 8 9 13 5 8 -5 13 20 12 69 0 9 7 17 16 17 11 0 12 3 4 11 -6 6 -9
18 -6 25 6 16 -3 19 -12 4z"/>
<path d="M2110 1020 c0 -5 5 -10 10 -10 6 0 10 5 10 10 0 6 -4 10 -10 10 -5 0
-10 -4 -10 -10z"/>
</g>
</svg>
