<svg xmlns="http://www.w3.org/2000/svg" width="16.649" height="16.728" viewBox="0 0 16.649 16.728"><defs><style>.a{fill:#fff;}</style></defs><path class="a" d="M406.2,679.3l1.175-4.3a8.291,8.291,0,1,1,3.219,3.143Zm4.6-2.653a6.872,6.872,0,1,0-1.912-1.859l-.7,2.543Zm7.936-3.808c-.052-.087-.189-.138-.4-.242s-1.226-.6-1.416-.674-.328-.1-.467.1-.535.674-.655.812-.242.155-.449.052a5.651,5.651,0,0,1-1.666-1.028,6.231,6.231,0,0,1-1.153-1.436c-.12-.207-.012-.319.091-.422s.207-.242.311-.363a1.372,1.372,0,0,0,.209-.345.38.38,0,0,0-.017-.363c-.053-.1-.467-1.123-.638-1.538s-.34-.349-.467-.356l-.4-.007a.757.757,0,0,0-.552.26,2.322,2.322,0,0,0-.725,1.728,4.029,4.029,0,0,0,.845,2.143,9.242,9.242,0,0,0,3.538,3.128,11.893,11.893,0,0,0,1.18.436,2.842,2.842,0,0,0,1.305.082,2.133,2.133,0,0,0,1.4-.985A1.718,1.718,0,0,0,418.737,672.842Z" transform="translate(-406.202 -662.576)"/></svg>