<svg xmlns="http://www.w3.org/2000/svg" width="18.794" height="13.016" viewBox="0 0 18.794 13.016"><defs><style>.a{fill:#fff;}</style></defs><path class="a" d="M369.3,672.11a3.774,3.774,0,0,0-.491-1.523,2.048,2.048,0,0,0-.222-.3,1.828,1.828,0,0,0-.178-.179,1.994,1.994,0,0,0-1.05-.467,15.963,15.963,0,0,0-1.687-.146c-1.329-.043-2.658-.077-3.944-.108l-1.509-.039-.124,0h-.011l-.124,0-1.507.039c-1.287.031-2.616.065-3.945.108a15.96,15.96,0,0,0-1.687.146,1.96,1.96,0,0,0-1.452.95,3.771,3.771,0,0,0-.486,1.523,37.025,37.025,0,0,0,0,7.486,3.764,3.764,0,0,0,.486,1.523c.02.035.043.07.064.1v0a1.913,1.913,0,0,0,.522.522h0a2.038,2.038,0,0,0,.861.321,15.313,15.313,0,0,0,1.687.146c1.365.046,2.73.08,4.05.112q.712.019,1.4.035h.256l1.4-.035c1.321-.032,2.685-.07,4.049-.112a15.326,15.326,0,0,0,1.687-.146,1.953,1.953,0,0,0,1.45-.95,3.772,3.772,0,0,0,.491-1.523,37.466,37.466,0,0,0,0-7.483Zm-9.21,5.421-2.143,1.143h0V672.61h0l.746.4,1.4.745,3.54,1.889Z" transform="translate(-350.693 -669.343)"/></svg>